<svg xmlns="http://www.w3.org/2000/svg" xmlns:xlink="http://www.w3.org/1999/xlink" width="25" height="25" viewBox="0 0 25 25">
    <defs>
        <path id="8e2q1ay0fa" d="M0.033 0.005L3.804 0.005 3.804 4.45 0.033 4.45z"/>
        <path id="5rax0kzl8b" d="M0.007 0.03L4.456 0.03 4.456 3.52 0.007 3.52z"/>
    </defs>
    <g fill="none" fill-rule="evenodd" opacity=".7">
        <g>
            <g>
                <path fill="#FFF" fill-rule="nonzero" d="M12.48 0c6.893 0 12.48 5.587 12.48 12.48 0 6.893-5.587 12.48-12.48 12.48C5.587 24.96 0 19.373 0 12.48 0 5.587 5.587 0 12.48 0zm5.416 16.67c-1.15 1.644-2.623 2.644-4.45 2.989.028.012.04.02.052.023.432.131.864.264 1.297.393.276.082.557.109.84.062.853-.141 1.466-.658 1.795-1.572.13-.364.197-.758.29-1.138.061-.252.118-.505.176-.757zM12.904 5.777c-.77-.056-1.527.027-2.27.238C7.964 6.77 6 9.137 5.782 11.928c-.063.817.007 1.62.236 2.406.814 2.792 3.287 4.742 6.164 4.86.856.035 1.69-.087 2.5-.37 2.689-.94 4.504-3.504 4.495-6.348l.023-.002c-.04-.38-.064-.762-.126-1.138-.217-1.306-.78-2.447-1.677-3.41-1.217-1.307-2.72-2.022-4.493-2.15zM4.928 13.44c-.016.04-.024.055-.028.071l-.319 1.134c-.089.312-.129.628-.08.95.136.896.637 1.534 1.507 1.876.358.14.745.21 1.12.31.093.026.187.049.281.072l.271.067c-.724-.566-1.33-1.224-1.806-1.99-.475-.764-.788-1.586-.946-2.49zm9.447.123c1.058-.001 1.915.853 1.919 1.913.004 1.061-.847 1.918-1.908 1.92-1.052.003-1.917-.855-1.918-1.904-.002-1.058.858-1.927 1.907-1.929zm-4.799-.923c1.085.012 1.923.869 1.913 1.956-.01 1.034-.891 1.888-1.938 1.877-1.057-.012-1.898-.883-1.886-1.955.011-1.037.878-1.89 1.911-1.878zm2.852-.964c.467 0 .85.38.852.845 0 .47-.377.854-.841.855-.474.002-.858-.378-.858-.849 0-.466.382-.85.847-.85zm2.947-3.19c1.064.01 1.906.88 1.894 1.955-.011 1.038-.878 1.89-1.912 1.878-1.083-.012-1.923-.87-1.912-1.956.01-1.031.89-1.886 1.93-1.877zm-4.826-.924c1.052-.002 1.917.858 1.918 1.905 0 1.058-.859 1.927-1.908 1.929-1.058.001-1.916-.855-1.919-1.914-.002-1.062.848-1.918 1.909-1.92zm6.124-1.157c.866.558 1.587 1.21 2.141 1.98.553.765.898 1.588 1.062 2.465.01-.025.023-.05.032-.075.126-.376.248-.753.378-1.128.118-.337.2-.677.134-1.029-.165-.873-.761-1.476-1.79-1.785-.397-.119-.819-.185-1.23-.274-.241-.053-.484-.103-.727-.154zM9.69 4.603c-.377-.113-.756-.166-1.143-.082-.854.186-1.462.71-1.755 1.603-.164.496-.264 1.016-.393 1.526-.001.006.004.014.009.03.57-.745 1.236-1.35 2.008-1.819.77-.466 1.592-.762 2.463-.912-.022-.008-.044-.017-.066-.023-.374-.108-.75-.211-1.123-.323z" transform="translate(-754 -173) translate(754 173)"/>
                <g transform="translate(-754 -173) translate(754 173) translate(16.64 6.4)"/>
                <g transform="translate(-754 -173) translate(754 173) translate(13.44 16.64)"/>
            </g>
        </g>
    </g>
</svg>
