<?xml version="1.0" encoding="UTF-8"?>
<svg width="92px" height="54px" viewBox="0 0 92 54" version="1.1" xmlns="http://www.w3.org/2000/svg" xmlns:xlink="http://www.w3.org/1999/xlink">
    <title>barbell</title>
    <g id="Desktop" stroke="none" stroke-width="1" fill="none" fill-rule="evenodd">
        <g id="Icon-Library" transform="translate(-1002.000000, -438.000000)" fill="#49AB6B" fill-rule="nonzero">
            <g id="barbell" transform="translate(1002.000000, 438.000000)">
                <path d="M88.1199,18.4437 L85.8924,18.4437 L85.8924,9.4446 C85.8924,7.332039 84.173661,5.6133 82.0611,5.6133 L76.3587,5.6133 C75.955077,5.6133 75.5660664,5.6769174 75.2004,5.793282 L75.2004,5.2569 C75.2004,2.3582988 72.8421012,0 69.9435,0 L62.8155,0 C59.9168988,0 57.5586,2.3582988 57.5586,5.2569 L57.5586,20.9903562 L33.6798,20.9903562 L33.6798,5.2569 C33.6798,2.3582988 31.3215012,0 28.4229,0 L21.2949,0 C18.3962988,0 16.038,2.3582988 16.038,5.2569 L16.038,5.793282 C15.6723336,5.6769174 15.283323,5.6133 14.8797,5.6133 L9.1773,5.6133 C7.064739,5.6133 5.346,7.332039 5.346,9.4446 L5.346,11.1708234 C5.346,11.9089278 5.9443956,12.5073234 6.6825,12.5073234 C7.4206044,12.5073234 8.019,11.9089278 8.019,11.1708234 L8.019,9.4446 C8.019,8.8059312 8.5386312,8.2863 9.1773,8.2863 L14.8797,8.2863 C15.5183688,8.2863 16.038,8.8059312 16.038,9.4446 L16.038,44.3718 C16.038,45.0104688 15.5183688,45.5301 14.8797,45.5301 L9.1773,45.5301 C8.5386312,45.5301 8.019,45.0104688 8.019,44.3718 L8.019,16.8896178 C8.019,16.1515134 7.4206044,15.5531178 6.6825,15.5531178 C5.9443956,15.5531178 5.346,16.1515134 5.346,16.8896178 L5.346,18.4437 L3.1185,18.4437 C1.3990482,18.4437 0,19.8427482 0,21.5622 L0,32.2542 C0,33.9736518 1.3990482,35.3727 3.1185,35.3727 L5.346,35.3727 L5.346,44.3718 C5.346,46.484361 7.064739,48.2031 9.1773,48.2031 L14.8797,48.2031 C15.283323,48.2031 15.6723336,48.1394826 16.038,48.023118 L16.038,48.5595 C16.038,51.4581012 18.3962988,53.8164 21.2949,53.8164 L28.4229,53.8164 C31.3215012,53.8164 33.6798,51.4581012 33.6798,48.5595 L33.6798,32.8260438 L35.6250312,32.8260438 C36.3631356,32.8260438 36.9615312,32.2276482 36.9615312,31.4895438 C36.9615312,30.7514394 36.3631356,30.1530438 35.6250312,30.1530438 L33.6798,30.1530438 L33.6798,23.6633562 L57.5586,23.6633562 L57.5586,30.1530438 L41.4186696,30.1530438 C40.6805652,30.1530438 40.0821696,30.7514394 40.0821696,31.4895438 C40.0821696,32.2276482 40.6805652,32.8260438 41.4186696,32.8260438 L57.5586,32.8260438 L57.5586,48.5595 C57.5586,51.4581012 59.9168988,53.8164 62.8155,53.8164 L69.9435,53.8164 C72.8421012,53.8164 75.2004,51.4581012 75.2004,48.5595 L75.2004,48.023118 C75.5660664,48.1394826 75.955077,48.2031 76.3587,48.2031 L82.0611,48.2031 C84.173661,48.2031 85.8924,46.484361 85.8924,44.3718 L85.8924,42.5669904 C85.8924,41.828886 85.2940044,41.2304904 84.5559,41.2304904 C83.8177956,41.2304904 83.2194,41.828886 83.2194,42.5669904 L83.2194,44.3718 C83.2194,45.0104688 82.6997688,45.5301 82.0611,45.5301 L76.3587,45.5301 C75.7200312,45.5301 75.2004,45.0104688 75.2004,44.3718 L75.2004,9.4446 C75.2004,8.8059312 75.7200312,8.2863 76.3587,8.2863 L82.0611,8.2863 C82.6997688,8.2863 83.2194,8.8059312 83.2194,9.4446 L83.2194,36.7983 C83.2194,37.5364044 83.8177956,38.1348 84.5559,38.1348 C85.2940044,38.1348 85.8924,37.5364044 85.8924,36.7983 L85.8924,35.3727 L88.1199,35.3727 C89.8393518,35.3727 91.2384,33.9736518 91.2384,32.2542 L91.2384,21.5622 C91.2384,19.8427482 89.8393518,18.4437 88.1199,18.4437 Z M3.1185,32.6997 C2.8729404,32.6997 2.673,32.4997596 2.673,32.2542 L2.673,21.5622 C2.673,21.3166404 2.8729404,21.1167 3.1185,21.1167 L5.346,21.1167 L5.346,32.6997 L3.1185,32.6997 Z M31.0068,48.5595 C31.0068,49.984209 29.847609,51.1434 28.4229,51.1434 L21.2949,51.1434 C19.870191,51.1434 18.711,49.984209 18.711,48.5595 L18.711,5.2569 C18.711,3.832191 19.870191,2.673 21.2949,2.673 L28.4229,2.673 C29.847609,2.673 31.0068,3.832191 31.0068,5.2569 L31.0068,48.5595 Z M72.5274,48.5595 C72.5274,49.984209 71.368209,51.1434 69.9435,51.1434 L62.8155,51.1434 C61.390791,51.1434 60.2316,49.984209 60.2316,48.5595 L60.2316,5.2569 C60.2316,3.832191 61.390791,2.673 62.8155,2.673 L69.9435,2.673 C71.368209,2.673 72.5274,3.832191 72.5274,5.2569 L72.5274,48.5595 Z M88.5654,32.2542 C88.5654,32.4997596 88.3654596,32.6997 88.1199,32.6997 L85.8924,32.6997 L85.8924,21.1167 L88.1199,21.1167 C88.3654596,21.1167 88.5654,21.3166404 88.5654,21.5622 L88.5654,32.2542 Z" id="Shape"></path>
            </g>
        </g>
    </g>
</svg>