<?xml version="1.0" encoding="UTF-8"?>
<svg width="71px" height="72px" viewBox="0 0 71 72" version="1.1" xmlns="http://www.w3.org/2000/svg" xmlns:xlink="http://www.w3.org/1999/xlink">
    <title>Group-8</title>
    <g id="Desktop" stroke="none" stroke-width="1" fill="none" fill-rule="evenodd">
        <g id="Icon-Library" transform="translate(-1187.000000, -429.000000)" fill="#49AB6B" fill-rule="nonzero">
            <g id="Group-8" transform="translate(1187.000000, 429.000000)">
                <path d="M25.7965205,65.0786199 C25.9864385,64.9219984 26.1588566,64.802094 26.305168,64.6560861 C27.8942254,63.0706518 29.4692254,61.4711618 31.0720533,59.8997833 C31.4734057,59.5065084 31.4745533,59.2368669 31.0772172,58.8412972 C26.9314385,54.714349 22.7959877,50.5770741 18.6674221,46.4329147 C18.3217254,46.0858231 18.0758648,46.066604 17.7241434,46.4240223 C16.1161516,48.0579347 14.4943893,49.6780781 12.8645943,51.2910502 C12.5191844,51.6326916 12.5042664,51.8865562 12.8614385,52.2422534 C17.0229959,56.385839 21.172791,60.5417594 25.3280369,64.6916558 C25.4579959,64.8216 25.6117664,64.9274486 25.7965205,65.0786199 M17.9611107,33.3237514 C21.6246352,36.9561657 33.7231598,49.0544606 37.3519713,52.7218709 C37.82275,53.1977594 38.1618484,53.2628749 38.7445123,52.8922614 C43.9618074,49.5725163 49.2086516,46.2998151 54.4225041,42.9749068 C55.5270123,42.2706837 56.5457418,41.4276239 57.5759467,40.6132494 C57.9956598,40.281361 60.4080779,39.5561976 60.8209057,40.0937594 C61.0357828,40.3734406 59.8672992,41.0882773 60.2471352,41.2411697 C60.2792664,41.1548271 59.8423402,40.9764048 59.8744713,40.8897753 C59.7818074,40.8582215 59.6750861,40.8473211 59.600209,40.7925323 C59.3081598,40.5794008 58.9108238,40.4032733 58.7831598,40.1121179 C58.702832,39.929106 58.9745123,39.5080064 59.1888156,39.2948749 C59.8592664,38.62909 60.5773402,38.0112096 61.34275,37.3144446 C61.5404139,38.251592 66.7513975,33.5259825 66.8456584,34.3567076 C66.8695943,34.569839 61.5432828,40.4216319 61.3068893,40.5994805 C58.3700451,42.8088191 55.5141025,45.1432255 52.4530369,47.16611 C48.1715615,49.9950502 43.7311516,52.5833211 39.3679139,55.2894884 C38.8859467,55.5883888 38.4232008,55.9429386 38.0221352,56.3425243 C33.2305779,61.1137434 28.4533648,65.8993052 23.6698402,70.678843 C22.0658648,72.2814884 20.4871352,72.2794805 18.8771352,70.6696637 C12.9437746,64.7392733 7.01270902,58.8068749 1.0825041,52.8733291 C-0.359954918,51.4301737 -0.361102459,49.7905243 1.08078279,48.341345 C3.45647951,45.9538709 5.83647951,43.5706996 8.21676639,41.1878151 C8.38143852,41.022588 8.56275,40.8737116 8.86856967,40.5983331 M9.28111066,43.5032892 C7.19947131,45.6099347 5.09861066,47.6976478 3.00492213,49.7925323 C2.25672541,50.5409307 2.25328279,50.6797673 2.98541393,51.412102 C8.76356967,57.1924685 14.542873,62.9711139 20.32275,68.7497594 C20.5086516,68.935353 20.6761926,69.1831936 20.9031189,69.2715442 C21.1274631,69.3590343 21.5121762,69.3885801 21.660209,69.2566279 C22.390332,68.6057594 23.0696762,67.8969466 23.7579139,67.2001817 C24.1383238,66.8146518 23.8161516,66.5582056 23.5625451,66.3040542 C21.6214795,64.3609147 19.6786926,62.4192096 17.7359057,60.4775044 C15.2187746,57.9615203 12.6999221,55.4478311 10.1847992,52.929839 C9.27967623,52.0239586 9.2745123,51.5291378 10.1644303,50.6364526 C12.4425861,48.3516717 14.7236107,46.0700462 17.0069303,43.7904287 C17.9241025,42.8747952 18.462873,42.8661896 19.3631189,43.7654725 C23.7762746,48.1732494 28.1857008,52.5850422 32.5965615,56.9954008 C33.2833648,57.6821259 33.2839385,57.6824127 33.99025,56.9758948 C34.4971762,56.4687394 34.9742664,55.9271618 35.5173402,55.4630343 C36.0687336,54.9920223 35.9637336,54.6555442 35.49525,54.1922773 C32.522832,51.2520382 29.572791,48.288851 26.6144303,45.3342693 C25.3466844,44.068102 18.3842664,37.1535203 17.1483648,35.8572335" id="Fill-1"></path>
                <g id="Group-5" transform="translate(6.024590, 0.165801)">
                    <path d="M12.2361434,34.0355474 C12.107332,34.0524717 12.0651598,34.0516112 12.0637254,34.0587825 C11.8408156,35.2102088 10.9087254,35.7758821 10.134709,36.5093641 C8.33192213,38.2175713 6.60831557,40.0086789 4.84770082,41.7616351 C4.65347951,41.9546869 4.4279877,42.1161849 4.19733197,42.3089498 C3.64880738,40.9332048 -0.754594262,43.9471649 0.202454918,42.9976829 C1.66126639,41.5502247 7.88638934,35.3785912 9.30388934,33.8915474 C9.61343852,33.5668303 9.8765123,33.0183681 9.8549959,32.5880892 C9.74913525,30.4676749 9.6002418,28.3455394 9.35265984,26.2374598 C9.04483197,23.6176351 8.75479098,21.0110056 9.37130738,18.3989259 C10.16225,15.0476271 12.002332,12.2815076 14.229709,9.73884622 C16.0852828,7.62072669 18.1204467,5.71459124 20.7540533,4.58238406 C23.4407336,3.42751554 26.0938484,3.40456733 28.6502828,4.95758725 C29.0820451,5.21977052 29.3195861,5.10818486 29.6216762,4.78432829 C31.1545041,3.14123665 32.9039303,1.79073466 35.0093811,0.954846215 C38.6083566,-0.473679681 42.0925779,0.0512605578 45.4941762,1.63497371 C48.607168,3.08443984 51.2591352,5.19280637 53.7363893,7.53122869 C56.784832,10.4080733 59.6803648,13.4205992 61.7599959,17.1080892 C63.6158566,20.3980016 64.4567172,23.8815394 63.667209,27.6545116 C63.1092172,30.3225275 61.8793402,32.6787347 60.3117992,34.8783203 C60.0602008,35.2314359 59.8266762,35.2781928 59.4129877,35.0469896 C58.9267172,34.7759139 51.5649549,41.4472446 50.9335205,41.2289498 C51.0763893,41.0112287 57.9929057,34.0094438 58.1383566,33.8118024 C59.6858156,31.7137625 60.9392172,29.4722964 61.3993811,26.8708303 C61.94475,23.7848701 61.2754467,20.8867984 59.6545451,18.2767267 C56.0139713,12.4163283 51.2370451,7.66461514 45.2543402,4.19083028 C43.3095451,3.06149163 41.1777008,2.43500558 38.884627,2.53540398 C35.9027418,2.66592191 33.5608975,4.11108526 31.5762254,6.19506932 C28.9492172,8.95344382 26.6724959,11.9917865 24.6338893,15.2085514 C24.5314713,15.3697625 24.4451189,15.5418741 24.3352418,15.6979219 C23.9043402,16.3097785 23.2192582,16.4752924 22.6480697,16.1129976 C22.1024139,15.7664797 21.9087664,15.0961052 22.3129877,14.4785116 C23.4238074,12.7812048 24.5805287,11.1137307 25.7395451,9.44855139 C26.1486434,8.86136414 26.6182746,8.31663108 27.0586434,7.75095777 C27.5615533,7.10410518 27.5282746,6.96985817 26.7591352,6.61674263 C25.0484385,5.83047968 23.3053238,5.92399363 21.7133975,6.79373068 C20.3027828,7.56421673 18.91225,8.46981036 17.7420451,9.56128446 C15.1724139,11.9579378 13.0090123,14.6870534 11.9067992,18.1109259 C11.2004877,20.3044876 11.3063484,22.5399299 11.5530697,24.7856988 C11.8083975,27.1120733 12.1486434,29.4358661 12.2436025,31.769412" id="Fill-3"></path>
                </g>
            </g>
        </g>
    </g>
</svg>