<svg xmlns="http://www.w3.org/2000/svg" width="120" height="120" viewBox="0 0 120 120">
    <g fill="none" fill-rule="evenodd">
        <g fill-rule="nonzero">
            <g transform="translate(-482 -782) translate(482 782)">
                <circle cx="60" cy="60" r="60" fill="#EDEDED"/>
                <path fill="#929292" stroke="#929292" stroke-width=".5" d="M75.412 50.772H42.559c-1.941 0-3.52 1.58-3.52 3.52v2.347c0 8.372 4.625 15.966 12.069 19.817.575.296 1.283.073 1.581-.504.296-.575.073-1.284-.504-1.582-6.66-3.445-10.8-10.239-10.8-17.732v-2.346c0-.648.526-1.174 1.174-1.174h32.853c.648 0 1.173.526 1.173 1.174v2.346c0 7.493-4.14 14.287-10.801 17.73-.578.297-.8 1.006-.505 1.581.21.404.62.636 1.044.636.183 0 .366-.042.538-.131 7.446-3.849 12.071-11.44 12.071-19.816v-2.346c0-1.94-1.58-3.52-3.52-3.52z"/>
                <path fill="#929292" stroke="#929292" stroke-width=".5" d="M85.885 74.961c-.183-.438-.61-.725-1.084-.725H33.174c-.474 0-.9.287-1.084.725-.183.44-.082.944.254 1.28l2.63 2.632c1.554 1.551 3.614 2.406 5.808 2.406h36.406c2.195 0 4.257-.854 5.813-2.406l2.63-2.633c.336-.335.437-.84.254-1.279zm-4.545 2.253c-1.108 1.108-2.584 1.718-4.15 1.718H40.783c-1.565 0-3.041-.61-4.149-1.718l-.628-.629h45.964l-.63.63zM86.05 56.312c-3.161-2.032-8.211.174-8.777.43-.59.27-.852.964-.582 1.556.27.591.962.852 1.556.582 1.13-.514 4.759-1.732 6.533-.59.8.515 1.192 1.512 1.192 3.042 0 4.698-9.476 7.537-13.134 8.237l-.831.164c-.636.124-1.05.741-.925 1.377.11.559.601.946 1.15.946.075 0 .15-.007.228-.023l.823-.162c.615-.118 15.036-2.945 15.036-10.54 0-2.36-.765-4.047-2.27-5.019zM68.12 40.944c1.909-2.384 1.909-6.118 0-8.502-.405-.507-1.14-.591-1.649-.183-.507.406-.589 1.143-.183 1.65 1.209 1.509 1.209 4.06-.002 5.573-1.91 2.384-1.91 6.118 0 8.502.232.291.572.441.917.441.256 0 .517-.084.733-.258.506-.406.589-1.145.183-1.65-1.211-1.509-1.211-4.06.002-5.573zM61.072 40.944c1.91-2.384 1.91-6.118 0-8.502-.404-.507-1.143-.589-1.65-.183-.507.406-.59 1.145-.183 1.65 1.21 1.509 1.21 4.06-.002 5.573-1.908 2.384-1.908 6.118 0 8.502.232.291.572.441.917.441.256 0 .514-.084.732-.258.507-.406.59-1.143.183-1.65-1.208-1.509-1.208-4.06.003-5.573zM54.04 40.946c1.909-2.384 1.909-6.117 0-8.502-.403-.506-1.14-.591-1.649-.183-.504.404-.586 1.143-.183 1.648 1.209 1.509 1.209 4.06-.002 5.573-1.91 2.384-1.91 6.118 0 8.502.232.291.572.441.917.441.256 0 .517-.084.733-.255.506-.406.589-1.146.183-1.65-1.211-1.512-1.211-4.06.002-5.574z"/>
            </g>
        </g>
    </g>
</svg>
