<svg xmlns="http://www.w3.org/2000/svg" width="106" height="106" viewBox="0 0 106 106">
    <g fill="none" fill-rule="evenodd">
        <g>
            <g transform="translate(-134 -105) translate(134 105)">
                <circle cx="53" cy="53" r="53" fill="#E9FBEF"/>
                <g fill="#5F5F5F" fill-rule="nonzero">
                    <g>
                        <path d="M37.015 47.932c-.356 0-.72-.046-1.081-.144L3.139 38.766C.89 38.13-.45 35.738.14 33.428l4.138-15.844c.152-.581.734-.919 1.298-.77.566.154.901.753.75 1.333L2.192 33.986c-.295 1.155.38 2.357 1.506 2.678l32.782 9.017c1.126.305 2.288-.383 2.58-1.534l1.657-6.305c.153-.581.734-.928 1.3-.769.567.157.9.756.749 1.336l-1.654 6.296c-.499 1.94-2.217 3.227-4.096 3.227z" transform="translate(27 29)"/>
                        <path d="M46.659 34.86H12.725c-2.34 0-4.242-1.955-4.242-4.358V4.357C8.483 1.954 10.386 0 12.725 0H46.66c2.34 0 4.242 1.954 4.242 4.357v26.145c0 2.403-1.903 4.358-4.242 4.358zM12.725 2.179c-1.168 0-2.12.978-2.12 2.178v26.145c0 1.2.952 2.179 2.12 2.179H46.66c1.168 0 2.12-.978 2.12-2.179V4.357c0-1.2-.952-2.178-2.12-2.178H12.725z" transform="translate(27 29)"/>
                        <path d="M19.088 15.251c-2.34 0-4.242-1.954-4.242-4.357 0-2.404 1.902-4.358 4.242-4.358 2.339 0 4.241 1.954 4.241 4.358 0 2.403-1.902 4.357-4.241 4.357zm0-6.536c-1.169 0-2.121.978-2.121 2.179 0 1.2.952 2.178 2.12 2.178 1.17 0 2.122-.978 2.122-2.178s-.953-2.18-2.121-2.18zM9.692 32.528c-.271 0-.543-.106-.75-.318-.414-.425-.414-1.115 0-1.54l10.016-10.29c1.2-1.233 3.298-1.233 4.499 0l2.982 3.063 8.254-10.175c.6-.738 1.482-1.167 2.422-1.176h.023c.93 0 1.81.414 2.416 1.14l11.092 13.294c.382.455.33 1.144-.114 1.536-.444.392-1.112.342-1.496-.118L37.944 14.65c-.205-.244-.49-.38-.806-.38-.22-.019-.608.138-.814.393l-8.999 11.092c-.19.235-.469.377-.768.39-.3.021-.587-.1-.797-.318l-3.803-3.907c-.4-.41-1.098-.41-1.5 0L10.442 32.21c-.206.212-.477.318-.749.318z" transform="translate(27 29)"/>
                    </g>
                </g>
            </g>
        </g>
    </g>
</svg>
