<svg xmlns="http://www.w3.org/2000/svg" width="106" height="106" viewBox="0 0 106 106">
    <g fill="none" fill-rule="evenodd">
        <g>
            <g transform="translate(-134 -105) translate(134 105)">
                <circle cx="53" cy="53" r="53" fill="#E9FBEF"/>
                <g fill="#5F5F5F" fill-rule="nonzero">
                    <path d="M36.366 7.195c.626 0 1.134-.508 1.134-1.135V2.481C37.5 1.113 36.388 0 35.021 0H11.029c-.3 0-.59.12-.802.332L.832 9.73c-.212.213-.332.501-.332.802V44.52C.5 45.887 1.613 47 2.98 47h32.04c1.368 0 2.48-1.113 2.48-2.481v-17.32c0-.627-.508-1.135-1.134-1.135-.626 0-1.134.508-1.134 1.134V44.52c0 .117-.095.212-.211.212H2.981c-.117 0-.213-.095-.213-.212V11.667h6.916c1.367 0 2.48-1.113 2.48-2.48V2.269H35.02c.116 0 .21.095.21.212v3.58c0 .626.509 1.134 1.135 1.134zM9.896 9.187c0 .116-.096.21-.212.21H4.373l5.522-5.524v5.314z" transform="translate(33.5 29)"/>
                    <path d="M44.407 9.443l-1.3-1.327c-1.457-1.488-3.829-1.488-5.287 0L27.502 18.652H9.605c-.61 0-1.105.505-1.105 1.128 0 .623.495 1.129 1.105 1.129h15.688l-6.65 6.79H9.605c-.61 0-1.105.504-1.105 1.127s.495 1.128 1.105 1.128h6.829l-.018.018c-.135.138-.232.309-.283.496l-1.707 6.276H9.605c-.61 0-1.105.505-1.105 1.128 0 .623.495 1.128 1.105 1.128h5.661s.243-.028.278-.037l6.973-1.976c.183-.052.35-.152.485-.29l21.405-21.856c1.457-1.488 1.457-3.91 0-5.398zM16.853 36.251l.902-3.316 2.346 2.395-3.248.921zm5.368-1.946L18.76 30.77l17.669-18.042 3.461 3.535-17.669 18.042zm20.623-21.059l-1.392 1.421-3.461-3.534 1.392-1.422c.596-.608 1.566-.608 2.162 0l1.3 1.328c.595.608.595 1.599 0 2.207z" transform="translate(33.5 29)"/>
                </g>
            </g>
        </g>
    </g>
</svg>
