<svg xmlns="http://www.w3.org/2000/svg" width="87" height="87" viewBox="0 0 87 87">
    <g fill="none" fill-rule="evenodd">
        <g fill-rule="nonzero">
            <g>
                <path fill="#696969" d="M43.008 86.016C19.255 86.016 0 66.761 0 43.008 0 19.255 19.255 0 43.008 0c23.753 0 43.008 19.255 43.008 43.008-.023 23.743-19.265 42.985-43.008 43.008zm0-78.738C23.275 7.29 7.286 23.296 7.299 43.029c.013 19.734 16.018 35.722 35.752 35.71 19.725-.014 35.708-16.006 35.708-35.731-.023-19.731-16.02-35.717-35.751-35.73z" transform="translate(-266 -1293) translate(266 1293)"/>
                <path fill="#47AA69" d="M36.326 56.18c-.975-.014-1.902-.42-2.575-1.127l-9.15-9.534c-1.322-1.513-1.167-3.813.346-5.135 1.411-1.232 3.524-1.192 4.888.092l6.491 6.895 17.45-17.238c1.356-1.485 3.656-1.59 5.141-.234 1.486 1.356 1.59 3.656.234 5.142-.085.093-.174.18-.268.266L38.837 55.14c-.67.658-1.57 1.03-2.511 1.04z" transform="translate(-266 -1293) translate(266 1293)"/>
            </g>
        </g>
    </g>
</svg>
