<svg xmlns="http://www.w3.org/2000/svg" width="104" height="104" viewBox="0 0 104 104">
    <g fill="none" fill-rule="evenodd">
        <g fill-rule="nonzero">
            <g transform="translate(-382 -1169) translate(384 1171)">
                <circle cx="50" cy="50" r="50" fill="#B3DCC1" stroke="#FFF" stroke-width="4"/>
                <g fill="#FFF">
                    <path d="M10.64 4.483h4.546c.4 0 .723-.323.723-.723 0-.4-.324-.723-.723-.723H10.64c-.399 0-.723.324-.723.723 0 .4.324.723.723.723zM9.884 20.455h-3.03c-.399 0-.722.324-.722.723v4.546c0 .399.323.723.723.723h3.03c.399 0 .722-.324.722-.723v-4.546c0-.4-.323-.723-.723-.723zM9.161 25H7.578v-3.099h1.583v3.1zM22 20.455h-3.029c-.4 0-.723.324-.723.723v4.546c0 .399.324.723.723.723h3.03c.398 0 .722-.324.722-.723v-4.546c0-.4-.324-.723-.723-.723zM21.277 25h-1.583v-3.099h1.583v3.1zM24.306 21.177v4.546c0 .4.324.723.723.723h3.03c.399 0 .722-.324.722-.723v-4.546c0-.399-.323-.723-.723-.723H25.03c-.399 0-.723.324-.723.723zm1.447.724h1.581V25h-1.582v-3.1zM15.942 20.455h-3.029c-.4 0-.723.324-.723.723 0 .4.324.723.723.723h2.306v3.822c0 .4.324.723.723.723.4 0 .723-.324.723-.723v-4.546c0-.399-.324-.722-.723-.722z" transform="translate(35 26)"/>
                    <path d="M21.034.009H4.792C2.187.012.077 2.122.074 4.727v37.446c.003 2.605 2.113 4.716 4.718 4.718h16.242c2.605-.002 4.716-2.113 4.719-4.718V29.474h3.358c1.49-.002 2.696-1.208 2.698-2.698v-6.652c-.002-1.49-1.209-2.696-2.698-2.698h-3.358V4.727C25.75 2.122 23.639.012 21.034.01zm3.272 42.164c-.002 1.806-1.466 3.27-3.272 3.272H4.792c-1.806-.002-3.27-1.466-3.272-3.272V4.727c.002-1.806 1.466-3.27 3.272-3.272h16.242c1.806.002 3.27 1.466 3.272 3.272v12.7H5.635c-1.398 0-2.53 1.134-2.532 2.531v6.984c.001 1.398 1.134 2.53 2.532 2.532h18.671v12.699zm6.058-22.05v6.653c0 .691-.56 1.251-1.251 1.252H5.8c-.69-.001-1.25-.56-1.25-1.252v-6.652c0-.691.56-1.25 1.25-1.252h23.311c.692 0 1.252.56 1.253 1.252z" transform="translate(35 26)"/>
                </g>
            </g>
        </g>
    </g>
</svg>
