<svg xmlns="http://www.w3.org/2000/svg" width="104" height="104" viewBox="0 0 104 104">
    <g fill="none" fill-rule="evenodd">
        <g fill-rule="nonzero">
            <g transform="translate(-382 -1285) translate(384 1287)">
                <circle cx="50" cy="50" r="50" fill="#32C5FF" stroke="#FFF" stroke-width="4"/>
                <path fill="#FFF" d="M45.64 30.483h4.546c.4 0 .723-.323.723-.723 0-.4-.324-.723-.723-.723H45.64c-.399 0-.723.324-.723.723 0 .4.324.723.723.723zM44.884 46.455h-3.03c-.399 0-.722.324-.722.723v4.546c0 .399.323.723.723.723h3.03c.399 0 .722-.324.722-.723v-4.546c0-.4-.323-.723-.723-.723zM44.161 51h-1.583v-3.099h1.583v3.1zM57 46.455h-3.029c-.4 0-.723.324-.723.723v4.546c0 .399.324.723.723.723h3.03c.398 0 .722-.324.722-.723v-4.546c0-.4-.324-.723-.723-.723zM56.277 51h-1.583v-3.099h1.583v3.1zM59.306 47.177v4.546c0 .4.324.723.723.723h3.03c.399 0 .722-.324.722-.723v-4.546c0-.399-.323-.723-.723-.723H60.03c-.399 0-.723.324-.723.723zm1.447.724h1.581V51h-1.582v-3.1zM50.942 46.455h-3.029c-.4 0-.723.324-.723.723 0 .4.324.723.723.723h2.306v3.822c0 .4.324.723.723.723.4 0 .723-.324.723-.723v-4.546c0-.399-.324-.722-.723-.722z"/>
                <path fill="#FFF" d="M56.034 26.009H39.792c-2.605.003-4.715 2.113-4.718 4.718v37.446c.003 2.605 2.113 4.716 4.718 4.718h16.242c2.605-.002 4.716-2.113 4.719-4.718V55.474h3.358c1.49-.002 2.696-1.208 2.698-2.698v-6.652c-.002-1.49-1.209-2.696-2.698-2.698h-3.358V30.727c-.003-2.605-2.114-4.715-4.719-4.718zm3.272 42.164c-.002 1.806-1.466 3.27-3.272 3.272H39.792c-1.806-.002-3.27-1.466-3.272-3.272V30.727c.002-1.806 1.466-3.27 3.272-3.272h16.242c1.806.002 3.27 1.466 3.272 3.272v12.7H40.635c-1.398 0-2.53 1.134-2.532 2.531v6.984c.001 1.398 1.134 2.53 2.532 2.532h18.671v12.699zm6.058-22.05v6.653c0 .691-.56 1.251-1.251 1.252H40.8c-.69-.001-1.25-.56-1.25-1.252v-6.652c0-.691.56-1.25 1.25-1.252h23.311c.692 0 1.252.56 1.253 1.252z"/>
            </g>
        </g>
    </g>
</svg>
