<svg xmlns="http://www.w3.org/2000/svg" xmlns:xlink="http://www.w3.org/1999/xlink" width="105" height="105" viewBox="0 0 105 105">
    <defs>
        <path id="ubi07s3mwa" d="M0 0.175L104.541 0.175 104.541 93.5 0 93.5z"/>
    </defs>
    <g fill="none" fill-rule="evenodd" opacity=".221">
        <g>
            <g>
                <g transform="translate(-1472 -812) translate(1472 812) translate(0 10.613)">
                    <mask id="tkeob0czkb" fill="#fff">
                        <use xlink:href="#ubi07s3mwa"/>
                    </mask>
                    <path fill="#000" fill-rule="nonzero" d="M92.09 52.448v-.008c-2.08 0-4.161-.038-6.24.008-4.185.092-7.382 3.279-7.435 7.358-.053 4.07 3.061 7.383 7.266 7.496 4.323.116 8.652.061 12.978.039 1.48-.008 2.108-.677 2.118-2.176.023-3.495.023-6.99 0-10.484-.01-1.57-.641-2.204-2.198-2.225-2.163-.03-4.326-.008-6.49-.008zm-68.477-39.2c.15.338.209.485.277.628.57 1.195.39 2.195-.548 2.72-1.075.603-1.934.186-2.607-.704-.476-.629-.83-1.355-1.34-1.951-.279-.325-.764-.653-1.163-.662-2.456-.057-4.916-.092-7.37-.004-4.073.146-7.158 3.479-7.1 7.553.062 4.164 3.31 7.288 7.743 7.318 6.622.044 13.244.014 19.866.01.346-.001.693-.06 1.458-.13-1.816-1.767-3.361-3.27-4.905-4.775-.358-.349-.725-.69-1.062-1.058-.844-.92-.891-2.037-.135-2.783.755-.745 1.888-.717 2.784.165 2.58 2.543 5.152 5.097 7.682 7.69.634.65 1.278.913 2.187.912 17.492-.024 34.985-.017 52.478-.02.446 0 .893-.042 1.397-.067 0-4.023.091-7.932-.042-11.833-.059-1.728-1.72-2.955-3.602-2.996-1.998-.043-3.999-.046-5.996.014-.44.013-.956.269-1.285.575-1.218 1.136-2.352 2.36-3.558 3.51-.916.872-2.038.906-2.786.165-.747-.74-.698-1.855.142-2.79.394-.44.818-.853 1.35-1.404H64.495c1.357 1.739 2.855 2.944 4.873 3.485 1.241.332 1.78 1.277 1.48 2.336-.297 1.052-1.311 1.692-2.476 1.208-1.629-.676-3.259-1.472-4.673-2.51-1.395-1.024-2.55-2.387-3.756-3.652-.645-.678-1.322-.975-2.286-.972-10.912.034-21.825.022-32.737.021h-1.307zM3.831 29.111c-.033.665-.065 1.026-.065 1.387-.005 17.124-.014 34.249-.006 51.373.003 4.8 3.104 7.87 7.943 7.87 27.583.007 55.165.005 82.748.002 2.047 0 2.61-.556 2.613-2.582.007-4.917.004-9.833-.002-14.75 0-.396-.053-.792-.09-1.297-.616 0-1.11.003-1.602 0-3.5-.022-7.008.1-10.496-.108-3.79-.225-6.717-2.171-8.63-5.432-4.365-7.436.81-16.672 9.43-16.859 3.415-.073 6.833-.014 10.25-.008.612.001 1.155.038 1.15-.862-.029-4.708-.003-9.417-.04-14.125-.01-1.06-.665-1.682-1.725-1.795-.536-.057-1.082-.036-1.623-.036-26.874-.001-53.749-.016-80.623.019-3.295.004-6.407-.38-9.232-2.797zM55.007 9.41c-.2-.293-.29-.427-.384-.56-.647-.914-.636-1.815.203-2.573.857-.774 1.76-.636 2.567.126.847.801 1.623 1.682 2.511 2.433.402.339.997.627 1.507.63 6.332.042 12.664.047 18.996-.006.576-.005 1.258-.356 1.701-.757 1.69-1.527 2.496-1.462 3.74.382.158.235.6.373.92.39.955.051 1.915.005 2.873.024 4.14.083 7.355 3.238 7.428 7.392.063 3.499.019 6.999 0 10.498-.004.665.096 1.125.783 1.502 2.04 1.12 2.976 2.91 2.958 5.252-.033 4.583.001 9.165-.028 13.748-.005.747.192 1.17.893 1.562 1.845 1.03 2.824 2.684 2.842 4.814.032 3.75.033 7.499.004 11.248-.016 2.129-.977 3.78-2.84 4.806-.692.38-.894.808-.89 1.563.027 5.124.013 10.248.002 15.372-.008 4.043-2.22 6.242-6.275 6.242-27.579.002-55.157.004-82.736 0-7-.002-11.776-4.78-11.778-11.78C0 61.553-.002 41.39.004 21.227c.003-6.95 4.76-11.71 11.696-11.733 1.911-.006 3.823-.001 5.876-.001-.071-.559-.202-1.037-.18-1.509.096-2.105.131-4.222.4-6.308.15-1.183 1.17-1.69 2.224-1.44 1.003.237 1.61 1.19 1.348 2.32-.528 2.282-.56 4.532.19 6.853h33.449z" mask="url(#tkeob0czkb)"/>
                </g>
                <path fill="#000" fill-rule="nonzero" d="M35.368 3.828c-4.255-.45-7.722.785-10.69 3.557-.882.823-1.952.785-2.674.044-.756-.775-.747-1.909.152-2.768 3.768-3.606 8.267-5.126 13.45-4.538 1.16.132 1.81 1.007 1.696 2.066-.11 1.018-.955 1.663-1.934 1.639M52.38 12.851c-.369.437-.706 1.103-1.248 1.415-.79.455-1.603.161-2.26-.5-1.907-1.92-3.824-3.83-5.74-5.741-.413-.412-.844-.805-1.26-1.212-.953-.93-1.055-2.05-.267-2.86.747-.768 1.874-.78 2.782.1 2.422 2.347 4.801 4.737 7.194 7.115.146.145.293.308.378.492.137.297.223.618.421 1.191M50.425 96.634c-12.166 0-24.331.002-36.497 0-4.343-.002-6.446-2.102-6.447-6.44-.002-12.54-.003-25.081 0-37.622.001-4.143 2.173-6.33 6.32-6.33 24.415-.007 48.829.02 73.243-.026 4.327-.008 7.002 2.955 6.217 7.876-.148.931-.828 1.458-1.766 1.468-1.001.01-1.665-.542-1.818-1.541-.1-.654-.046-1.33-.081-1.994-.066-1.273-.663-1.91-1.914-2.025-.414-.038-.833-.02-1.25-.02l-72.117.016c-.25 0-.5-.004-.75.003-1.752.045-2.321.6-2.325 2.35-.014 5.75-.014 11.5-.016 17.249-.002 6.833-.003 13.665.002 20.498.001 2.312.469 2.79 2.78 2.79 24.331.005 48.662.005 72.993.002 2.033 0 2.593-.569 2.613-2.599.01-1-.03-2.002.034-2.998.074-1.14.805-1.82 1.827-1.82 1.017.001 1.774.69 1.841 1.81.07 1.163.057 2.332.035 3.498-.068 3.554-2.372 5.85-5.928 5.858-7.624.017-15.248.004-22.872.003H50.425v-.006z" transform="translate(-1472 -812) translate(1472 812)"/>
                <path fill="#000" fill-rule="nonzero" d="M85.826 72.343c-.665 0-1.339.067-1.993-.015-1.044-.131-1.67-.77-1.652-1.844.018-1.059.64-1.749 1.686-1.819 1.324-.09 2.661-.075 3.988-.006 1.048.055 1.794.934 1.725 1.922-.076 1.074-.72 1.659-1.76 1.757-.66.063-1.33.012-1.994.012v-.007zM87.39 11.736c1.209.012 2.16-.927 2.159-2.135-.001-1.18-.905-2.109-2.085-2.14-1.198-.03-2.176.907-2.197 2.104-.02 1.205.912 2.159 2.123 2.17m7.555-4.793c.014-1.2-.76-2.254-1.908-2.598-1.15-.346-2.391.123-3.021 1.122-.188.299-.271.52.078.788.923.706 1.457 1.66 1.575 2.815.047.468.29.531.67.528 1.402-.013 2.589-1.215 2.606-2.655m-9.93-.925c-.416-1.281-1.72-2.013-3.03-1.724-1.372.302-2.263 1.562-2.084 2.947.175 1.353 1.379 2.431 2.67 2.334.203-.016.53-.276.554-.455.176-1.299.817-2.294 1.89-3.102m6.98 5.726c-.558-.245-.903.12-1.308.618-1.732 2.133-4.984 2.071-6.63-.122-.34-.454-.66-.55-1.193-.514-2.776.181-5.099-1.951-5.153-4.682-.056-2.751 2.17-5.036 4.905-4.962 1.875.05 3.292.933 4.224 2.582.138.245.38.43.575.643.193-.213.438-.397.57-.643 1.158-2.149 3.594-3.116 5.91-2.325 2.24.765 3.59 3.081 3.17 5.436-.423 2.363-2.525 4.048-5.07 3.969" transform="translate(-1472 -812) translate(1472 812)"/>
            </g>
        </g>
    </g>
</svg>
