<svg xmlns="http://www.w3.org/2000/svg" width="25" height="25" viewBox="0 0 25 25">
    <g fill="none" fill-rule="evenodd" opacity=".7">
        <g fill="#FFF" fill-rule="nonzero">
            <g>
                <path d="M24.576 12.288C24.576 5.501 19.076 0 12.288 0 5.501 0 0 5.5 0 12.288c0 6.787 5.5 12.288 12.288 12.288.072 0 .144 0 .216-.005V15.01h-2.64v-3.077h2.64V9.667c0-2.625 1.603-4.056 3.946-4.056 1.123 0 2.088.082 2.366.12v2.746h-1.613c-1.272 0-1.521.605-1.521 1.493v1.958h3.048l-.399 3.077h-2.65V24.1c5.137-1.474 8.895-6.202 8.895-11.813z" transform="translate(-890 -173) translate(890 173)"/>
            </g>
        </g>
    </g>
</svg>
