<?xml version="1.0" encoding="UTF-8"?>
<svg width="68px" height="82px" viewBox="0 0 68 82" version="1.1" xmlns="http://www.w3.org/2000/svg" xmlns:xlink="http://www.w3.org/1999/xlink">
    <title>foot-massage</title>
    <g id="Desktop" stroke="none" stroke-width="1" fill="none" fill-rule="evenodd">
        <g id="Icon-Library" transform="translate(-495.000000, -426.000000)" fill="#49AB6B" fill-rule="nonzero">
            <g id="foot-massage" transform="translate(495.000000, 426.000000)">
                <path d="M8.1375305,53.141572 C8.1037165,52.481561 7.542117,51.9710015 6.881468,52.008165 C6.221776,52.041979 5.714247,52.6042165 5.748061,53.264068 L6.0598835,59.346441 C6.1361245,60.830748 5.9399395,62.2995835 5.4770705,63.7117965 L0.107822,80.095158 C-0.097933,80.7231095 0.2441945,81.3987515 0.8719865,81.6045065 C1.503766,81.8112185 2.1766965,81.464625 2.381335,80.840342 L7.750743,64.456821 C8.3056435,62.7637285 8.5407465,61.003008 8.449353,59.223626 L8.1375305,53.141572 Z" id="Path"></path>
                <path d="M67.5404345,80.162786 L63.8591745,66.2012725 C63.1851275,63.644966 63.7704925,62.093669 64.0464275,57.901371 C64.618873,51.7572715 62.4602,45.7157305 58.123714,41.325493 L51.4717665,34.591084 C51.286268,30.038954 50.908572,25.4844315 50.3364455,20.9638825 C50.080448,18.9407845 49.2441895,17.1141905 48.0102975,15.6378585 L49.0058965,13.7034425 C49.630977,12.4893285 49.5296945,11.0423445 48.741924,9.9274395 C47.9404365,8.7921185 46.49425,8.126206 44.896698,8.487633 C44.761761,7.742449 44.3861385,7.0452745 43.8014115,6.5233905 C42.0784925,4.985332 40.1507755,5.932762 40.0664,5.940099 C39.7934955,5.2062395 39.311008,4.550854 38.6543465,4.0744275 C37.4737275,3.217753 35.9166885,3.0638355 34.591084,3.6731255 L34.4467365,3.7394775 C33.952765,2.1406495 32.549165,0.9842745 30.8835065,0.8085055 C28.908418,0.598444 27.224098,1.8433415 26.5301135,3.269112 C25.3316305,1.305667 23.173755,0 20.7476005,0 C16.553867,0 13.398,3.7672305 14.068857,7.89844 C14.176041,8.558451 14.263447,9.234412 14.328842,9.90814 C14.3924825,10.5657585 14.976731,11.0490435 15.6349875,10.98317 C16.292606,10.91937 16.773977,10.334643 16.7100175,9.6770245 C16.639678,8.9525755 16.545573,8.225096 16.4302545,7.515002 C15.993703,4.8259915 18.041683,2.3925 20.7476005,2.3925 C23.0370635,2.3925 24.957922,4.1940525 25.120612,6.4940425 C25.2164715,7.8478785 25.269585,9.3191065 25.263524,10.787623 C25.2557085,12.721082 26.8121095,14.2875315 28.740943,14.2875315 L40.0273225,14.2875315 C44.0479985,14.2875315 47.459544,17.286929 47.962926,21.264221 C48.903019,28.6935715 49.313891,36.2159105 49.191076,43.664082 L43.7216615,38.5720445 C42.2638315,37.2150185 39.994944,37.133195 38.443647,38.3816015 C36.811962,39.6946055 36.460743,42.076738 37.644552,43.8046015 L40.613166,48.138376 C40.9865555,48.683547 41.7307825,48.8227905 42.276113,48.4492415 C42.8211245,48.075852 42.960368,47.331306 42.5869785,46.7862945 L39.6183645,42.4523605 C39.136515,41.7492845 39.279427,40.780003 39.943585,40.2455185 C40.574886,39.7376705 41.4982315,39.7708465 42.091412,40.3230355 L51.139528,48.746709 C51.626003,49.200008 52.38299,49.166513 52.830228,48.6862585 C53.280337,48.202814 53.2533815,47.445827 52.7697775,46.9955585 L51.533493,45.8446065 C51.61101,43.272031 51.625684,40.689088 51.5770365,38.101998 L56.42153,43.006623 C60.260057,46.892681 62.1710265,52.240716 61.6641355,57.6791875 C61.4105305,61.805612 60.7269135,63.706533 61.5457865,66.811041 L65.2270465,80.7725545 C65.3948405,81.4092785 66.047674,81.7933545 66.6887045,81.6242845 C67.327502,81.456012 67.709026,80.8015835 67.5404345,80.162786 L67.5404345,80.162786 Z M46.8784855,12.6086345 L46.1986965,13.9296135 C45.526404,13.4332495 44.7925445,13.0179115 44.0132275,12.693329 L44.4697165,11.2021635 C46.3977525,10.0416415 47.404676,11.586718 46.8784855,12.6086345 L46.8784855,12.6086345 Z M37.249311,6.010917 C37.769281,6.3881345 38.0243215,7.0388945 37.899433,7.6689195 L37.061101,11.895191 L34.013056,11.895191 C34.395537,9.8974535 34.6040035,8.0801105 34.642762,6.402968 C34.781846,6.2621295 34.942622,6.1447375 35.1230165,6.0617975 C35.305644,6.0171375 36.2612085,5.293805 37.249311,6.010917 L37.249311,6.010917 Z M27.656024,10.7973525 C27.6603305,9.729819 27.6344915,8.6523965 27.581378,7.5805565 L28.591332,4.53618 C28.821969,3.8409195 29.659344,3.084092 30.632294,3.187767 C31.5712705,3.2868165 32.197946,4.0709185 32.235269,4.85518 C32.3464405,7.1814875 32.035575,9.6176905 31.5747795,11.8950315 L28.7407835,11.8950315 C28.1391495,11.8950315 27.653472,11.4050475 27.656024,10.7973525 L27.656024,10.7973525 Z M39.500175,11.8950315 C39.8273095,10.275309 40.049493,9.069808 40.1102625,8.8906895 C40.3342005,8.2300405 40.9773045,8.188411 41.15738,8.095582 C41.519764,7.971491 41.9221825,8.0529955 42.2080065,8.308036 C42.5158415,8.583014 42.6367425,9.0157375 42.516001,9.4103405 L41.7125995,12.034913 C40.582542,11.849255 39.838315,11.90508 39.500175,11.8950315 L39.500175,11.8950315 Z" id="Shape"></path>
                <path d="M52.4788495,72.6913275 C48.398999,68.2827475 46.6009555,62.12206 47.669446,56.21099 C47.8543065,55.1874785 47.632442,54.1513665 47.0446845,53.2935755 L45.3670635,50.8446125 C44.9938335,50.2994415 44.2489685,50.160198 43.7041165,50.533747 C43.1589455,50.9071365 43.0198615,51.6516825 43.393251,52.196694 L45.070872,54.645657 C45.300552,54.980926 45.3871605,55.385737 45.314907,55.785444 C44.836407,58.4333035 44.870859,61.125504 45.373922,63.72025 C43.0431485,66.329032 39.729855,67.8176455 36.21926,67.8176455 L34.519947,67.8176455 C29.5529575,67.8176455 24.9261815,64.8608345 23.2504745,59.843124 C25.415049,53.953108 25.1383165,48.8349125 25.163039,48.539997 C25.163039,47.6140995 25.3300355,46.706066 25.6595625,45.840938 C25.6681755,45.818289 25.6761505,45.7954805 25.6831685,45.772353 L29.1947205,34.5481785 C29.787263,32.945044 29.2827645,31.1680545 27.931959,30.1150355 C26.0787285,28.671082 23.406944,29.1924875 22.2121295,31.1380685 L19.955683,34.706881 C19.023565,31.477644 17.826996,28.206618 16.5479655,25.2608125 C15.8543,23.66342 15.6911315,21.8641005 16.0882865,20.193976 C16.0921145,20.1775475 16.095783,20.161119 16.098973,20.144531 C16.474117,18.206925 16.7049135,16.421482 16.804601,14.6862815 C16.8424025,14.026749 16.338542,13.4613215 15.67885,13.42352 C15.0193175,13.3838045 14.45389,13.889579 14.415929,14.549271 C14.3229405,16.169472 14.1066585,17.843265 13.754642,19.6658715 C13.246156,21.8286915 13.45861,24.1529255 14.353405,26.2136655 C14.774485,27.183585 15.1740325,28.1570135 15.551888,29.1321965 L8.94476,38.00247 C6.916558,40.7252945 5.7415215,43.9561265 5.546772,47.3455015 C5.5089705,48.0051935 6.012831,48.570621 6.672523,48.6084225 C6.69581,48.609858 6.719097,48.610496 6.7422245,48.610496 C7.371452,48.610496 7.898759,48.1190765 7.935444,47.4829905 C8.103238,44.5622265 9.115744,41.7779945 10.863545,39.4317495 L16.5336105,31.8197715 C17.1818185,33.6996385 17.745332,35.579665 18.2223965,37.4485265 L14.647842,43.102004 C14.2948685,43.6604135 14.461227,44.399377 15.0196365,44.7523505 C15.5782055,45.1058025 16.3170095,44.938806 16.6701425,44.380556 L24.2425645,32.4038605 C24.7194695,31.6274145 25.7559005,31.4526025 26.4612095,32.002399 C26.9885165,32.4134305 27.182947,33.1091695 26.944973,33.733931 C26.920729,33.7975715 27.0794315,33.2996125 23.4102935,45.0247765 C22.9857045,46.152282 22.770539,47.334815 22.770539,48.5401565 C22.713119,48.906847 23.4278385,57.704548 17.162838,66.153901 C16.7693515,66.6845575 16.880523,67.433729 17.4111795,67.8272155 C17.625388,67.9860775 17.875165,68.062797 18.122709,68.0626375 C18.35526,68.0626375 18.585578,67.994531 18.783039,67.86406 L17.538301,80.3489225 C17.4727465,81.0063815 17.9525225,81.5923845 18.6099815,81.657939 C19.266962,81.7238125 19.8534435,81.2437175 19.918998,80.5862585 L21.619906,63.5277335 C21.7358625,63.305869 21.849905,63.0830475 21.9604385,62.8584715 C24.533652,67.611093 29.454865,70.210305 34.5201065,70.210305 L36.2194195,70.210305 C39.8962135,70.210305 43.3921345,68.8441875 46.0746055,66.407825 C46.804637,68.621047 47.8897155,70.7186315 49.300174,72.604081 L51.1409635,80.731882 C51.287863,81.380728 51.932562,81.7799565 52.571838,81.634333 C53.216218,81.4883905 53.6202315,80.847679 53.474289,80.2034585 L52.5981555,76.3349455 C53.0568775,76.7573015 53.761389,76.7569825 54.2193135,76.333191 C54.7041935,75.8845175 54.733701,75.1275305 54.284868,74.6426505 L52.4788495,72.6913275 Z" id="Path"></path>
                <path d="M31.8073305,36.3014025 C32.4679795,36.3014025 33.0035805,35.765961 33.0035805,35.1051525 L33.0035805,31.403317 C33.0035805,29.2157745 31.9119625,27.1926765 30.083614,25.991482 C27.9241435,24.572889 25.133691,24.5727295 22.9745395,25.9906845 L20.5919285,27.5550605 C20.03958,27.917604 19.885822,28.6594385 20.248525,29.2116275 C20.6110685,29.7641355 21.3527435,29.917734 21.905092,29.555031 L24.287703,27.990655 C25.649195,27.0966575 27.40848,27.096817 28.769972,27.9911335 C29.922838,28.7484395 30.610921,30.023961 30.610921,31.403317 L30.610921,35.1051525 C30.6110805,35.7658015 31.1466815,36.3014025 31.8073305,36.3014025 L31.8073305,36.3014025 Z" id="Path"></path>
                <path d="M37.050893,37.1805665 C38.3847915,36.03743 40.319048,35.8311965 41.8641245,36.6676145 L43.101047,37.3368765 C43.6824245,37.6510915 44.40799,37.4351285 44.722524,36.85407 C45.0368985,36.2730115 44.8206165,35.547127 44.2397175,35.232593 L43.002795,34.5634905 C40.593069,33.259259 37.5754885,33.580811 35.4943325,35.3638615 C33.407913,37.1515375 32.6351355,39.986012 33.5254645,42.585224 L34.344178,44.975491 C34.5583865,45.6005715 35.2384945,45.933448 35.863575,45.7195585 C36.4886555,45.50535 36.8216915,44.825242 36.6076425,44.2001615 L35.7887695,41.8098945 C35.2180785,40.1437575 35.713326,38.326574 37.050893,37.1805665 L37.050893,37.1805665 Z" id="Path"></path>
            </g>
        </g>
    </g>
</svg>