<svg xmlns="http://www.w3.org/2000/svg" width="106" height="71" viewBox="0 0 106 71">
    <g fill="none" fill-rule="evenodd">
        <g fill="#47AA69" fill-rule="nonzero">
            <g>
                <path d="M101.106 31.207H89.614c.874-2.316 1.375-4.78 1.467-7.308.21-5.806-1.744-11.425-5.506-15.823-.556-.65-1.534-.727-2.184-.17-.65.555-.727 1.533-.17 2.183 3.254 3.806 4.946 8.67 4.764 13.697-.184 5.053-2.252 9.805-5.825 13.382l-.023.023c-.104.109-10.532 10.99-19.073 19.63-.601.609-.595 1.59.013 2.191.302.299.696.448 1.09.448.399 0 .798-.154 1.1-.46 6.914-6.994 15.056-15.448 17.987-18.498h17.852c2.563 0 4.648-2.085 4.648-4.647 0-2.563-2.085-4.648-4.648-4.648zm0 6.197H86.094c.78-.98 1.474-2.016 2.08-3.098h12.932c.855 0 1.55.695 1.55 1.549s-.695 1.549-1.55 1.549z" transform="translate(-596 -251) translate(596 251)"/>
                <path d="M58.41 61.488c-3.239 3.213-4.796 4.65-5.54 5.294-3.573-3.071-18.31-18.188-28.15-28.44l10.832-10.83 20.621 20.622c.878.877 2.045 1.361 3.286 1.361 1.242 0 2.409-.484 3.287-1.361l9.165-9.165c1.812-1.812 1.812-4.76 0-6.572-.878-.878-2.045-1.362-3.287-1.362-1.241 0-2.408.484-3.286 1.362l-5.879 5.878-20.621-20.621c-.878-.878-2.045-1.361-3.286-1.361-1.242 0-2.409.483-3.287 1.361l-5.275 5.275c-.605.605-.605 1.586 0 2.19.605.606 1.586.606 2.191 0l5.275-5.274c.293-.293.681-.454 1.095-.454.414 0 .803.161 1.096.454l21.717 21.717c.605.605 1.586.605 2.19 0l6.975-6.975c.293-.292.681-.454 1.095-.454.414 0 .803.162 1.096.454.603.604.603 1.587 0 2.19l-9.166 9.166c-.292.293-.681.454-1.095.454-.414 0-.803-.161-1.095-.454L36.647 24.226c-.605-.605-1.586-.605-2.19 0L22.472 36.209c-.292.292-.681.453-1.095.453H4.648c-.855 0-1.55-.695-1.55-1.549s.695-1.549 1.55-1.549h15.447c.41 0 .805-.163 1.095-.454l3.326-3.326c.605-.605.605-1.586 0-2.19-.605-.606-1.585-.606-2.19 0l-2.873 2.872h-.275c-2.93-7.35-1.215-15.886 4.415-21.524 3.766-3.768 8.77-5.844 14.095-5.844h.001c5.323 0 10.328 2.076 14.092 5.844.29.291.685.455 1.096.455.411 0 .805-.164 1.096-.455 3.252-3.255 7.382-5.236 11.945-5.728 4.432-.478 8.943.553 12.7 2.904.725.454 1.68.233 2.135-.492.453-.725.233-1.68-.492-2.134C75.918.774 70.707-.418 65.586.134c-4.7.507-9.159 2.477-12.708 5.59C48.676 2.023 43.338 0 37.69 0h-.001C31.536 0 25.752 2.398 21.4 6.753c-6.213 6.22-8.297 15.495-5.522 23.713H4.647C2.085 30.466 0 32.55 0 35.113c0 2.563 2.085 4.648 4.647 4.648h16.73c.132 0 .263-.009.392-.02 1.606 1.674 7.953 8.278 14.346 14.813 4.327 4.422 7.829 7.947 10.407 10.477 5.296 5.196 5.606 5.196 6.355 5.196.792 0 1.12 0 7.715-6.538.608-.603.612-1.584.01-2.191-.603-.608-1.584-.612-2.191-.01z" transform="translate(-596 -251) translate(596 251)"/>
            </g>
        </g>
    </g>
</svg>
