<svg xmlns="http://www.w3.org/2000/svg" width="120" height="120" viewBox="0 0 120 120">
    <g fill="none" fill-rule="evenodd">
        <g>
            <g transform="translate(-992 -782) translate(992 782)">
                <circle cx="60" cy="60" r="60" fill="#EDEDED" fill-rule="nonzero"/>
                <path fill="#929292" fill-rule="nonzero" d="M85.096 41.578c-6.414-6.104-16.854-6.104-23.27-.001l-1.335 1.267-1.332-1.267c-6.417-6.103-16.856-6.102-23.273 0C32.735 44.574 31 48.55 31 52.77s1.735 8.195 4.886 11.193l23.18 22.007c.4.38.913.569 1.425.569.513 0 1.025-.19 1.425-.57l23.18-22.006c3.15-2.997 4.886-6.972 4.886-11.193 0-4.22-1.735-8.194-4.886-11.191zm-2.852 19.383L60.491 81.614 38.74 60.962c-2.322-2.207-3.6-5.117-3.6-8.193 0-3.075 1.278-5.985 3.6-8.192 2.421-2.304 5.601-3.456 8.782-3.456 3.182 0 6.363 1.153 8.785 3.457l2.76 2.62c.798.76 2.052.76 2.85 0l2.76-2.621c4.844-4.608 12.724-4.608 17.568 0 2.32 2.207 3.6 5.117 3.6 8.192 0 3.076-1.28 5.985-3.6 8.192z"/>
                <path stroke="#929292" stroke-linecap="round" stroke-linejoin="round" stroke-width="3.6" d="M84.162 62.171L69.334 62.171 63.626 52.726 56.849 69.549 51.935 62.171 37.431 62.171"/>
            </g>
        </g>
    </g>
</svg>
