<svg xmlns="http://www.w3.org/2000/svg" width="104" height="104" viewBox="0 0 104 104">
    <g fill="none" fill-rule="evenodd">
        <g fill-rule="nonzero">
            <g transform="translate(-513 -1042) translate(515 1044)">
                <circle cx="50" cy="50" r="50" fill="#F2F2F2" stroke="#FFF" stroke-width="4"/>
                <path fill="#5F5F5F" d="M60.093 36.756c.5 0 .907-.406.907-.908v-2.863C61 31.89 60.11 31 59.017 31H39.823c-.24 0-.471.096-.641.266l-7.516 7.518c-.17.17-.266.401-.266.642v27.19c0 1.094.89 1.984 1.984 1.984h25.633c1.093 0 1.983-.89 1.983-1.985V52.76c0-.501-.406-.908-.907-.908s-.908.407-.908.908v13.856c0 .094-.075.17-.168.17H33.384c-.093 0-.17-.076-.17-.17V40.333h5.533c1.094 0 1.984-.89 1.984-1.984v-5.534h18.286c.093 0 .168.076.168.17v2.863c0 .502.407.908.908.908zm-21.177 1.593c0 .093-.076.17-.169.17h-4.249l4.418-4.42v4.25z"/>
                <path fill="#5F5F5F" d="M66.526 38.555l-1.04-1.062c-1.166-1.19-3.064-1.19-4.23 0l-8.254 8.429H38.684c-.488 0-.884.404-.884.902 0 .499.396.903.884.903h12.55l-5.32 5.431h-7.23c-.488 0-.884.405-.884.903s.396.902.884.902h5.463l-.014.015c-.108.11-.186.247-.227.397l-1.365 5.02h-3.857c-.488 0-.884.404-.884.903 0 .498.396.902.884.902h4.53s.193-.022.221-.03l5.578-1.58c.147-.042.281-.122.389-.232l17.124-17.485c1.165-1.19 1.165-3.128 0-4.318zM44.483 60l.721-2.653 1.877 1.916-2.598.737zm4.294-1.557l-2.77-2.828 14.136-14.433 2.77 2.827-14.136 14.434zm16.499-16.847l-1.114 1.137-2.77-2.828 1.114-1.137c.477-.487 1.253-.487 1.73 0l1.04 1.062c.476.487.476 1.279 0 1.766z"/>
            </g>
        </g>
    </g>
</svg>
