<svg xmlns="http://www.w3.org/2000/svg" width="25" height="25" viewBox="0 0 25 25">
    <g fill="none" fill-rule="evenodd" opacity=".7">
        <g fill="#FFF" fill-rule="nonzero">
            <g>
                <path d="M14.64 12.288c0 1.299-1.053 2.352-2.352 2.352s-2.352-1.053-2.352-2.352 1.053-2.352 2.352-2.352 2.352 1.053 2.352 2.352z" transform="translate(-924 -173) translate(924 173)"/>
                <path d="M17.788 8.127c-.113-.307-.293-.584-.527-.812-.228-.234-.505-.414-.812-.528-.248-.096-.622-.211-1.31-.242-.744-.034-.967-.042-2.851-.042s-2.107.008-2.851.042c-.688.031-1.062.146-1.31.242-.307.114-.584.294-.812.528-.234.228-.414.505-.528.812-.096.248-.211.622-.242 1.31-.034.744-.042.967-.042 2.851s.008 2.107.042 2.851c.03.688.146 1.062.242 1.31.114.307.294.584.528.812.228.234.505.415.811.528.25.096.623.211 1.31.243.745.034.968.04 2.852.04s2.107-.006 2.851-.04c.688-.032 1.062-.147 1.31-.243.616-.238 1.102-.724 1.34-1.34.096-.248.211-.622.242-1.31.034-.744.042-.967.042-2.85 0-1.885-.008-2.108-.041-2.852-.032-.688-.147-1.062-.244-1.31zm-5.5 7.784c-2.001 0-3.623-1.622-3.623-3.623 0-2.001 1.622-3.623 3.623-3.623 2.001 0 3.623 1.622 3.623 3.623 0 2.001-1.622 3.623-3.623 3.623zm3.767-6.543c-.468 0-.847-.379-.847-.847 0-.467.379-.846.847-.846.467 0 .846.379.846.846 0 .468-.379.847-.846.847z" transform="translate(-924 -173) translate(924 173)"/>
                <path d="M12.288 0C5.503 0 0 5.503 0 12.288s5.503 12.288 12.288 12.288 12.288-5.503 12.288-12.288S19.073 0 12.288 0zm7.013 15.197c-.034.751-.153 1.264-.327 1.713-.367.948-1.116 1.697-2.064 2.064-.449.174-.962.293-1.713.327-.752.035-.993.043-2.909.043s-2.156-.008-2.91-.043c-.75-.034-1.263-.153-1.712-.327-.47-.178-.897-.455-1.25-.814-.358-.353-.636-.78-.813-1.25-.175-.449-.294-.962-.328-1.713-.035-.752-.043-.993-.043-2.909s.008-2.157.043-2.91c.034-.75.153-1.263.327-1.712.177-.47.455-.897.814-1.25.353-.359.78-.636 1.25-.814.449-.174.962-.293 1.713-.327.752-.035.993-.043 2.909-.043s2.157.008 2.91.043c.75.034 1.263.153 1.712.327.47.177.897.455 1.25.814.359.353.637.78.814 1.25.174.449.293.962.328 1.713.034.752.042.993.042 2.909s-.008 2.157-.043 2.91z" transform="translate(-924 -173) translate(924 173)"/>
            </g>
        </g>
    </g>
</svg>
