<svg xmlns="http://www.w3.org/2000/svg" width="25" height="25" viewBox="0 0 25 25">
    <g fill="none" fill-rule="evenodd" opacity=".7">
        <g fill="#FFF" fill-rule="nonzero">
            <g>
                <path d="M12.288 0C5.503 0 0 5.503 0 12.288s5.503 12.288 12.288 12.288 12.288-5.503 12.288-12.288S19.073 0 12.288 0zm-3.57 18.576H5.724V9.572h2.992v9.004zM7.22 8.343h-.02c-1.004 0-1.653-.691-1.653-1.555 0-.884.67-1.556 1.693-1.556 1.024 0 1.654.672 1.673 1.556 0 .864-.65 1.555-1.693 1.555zm12.287 10.233h-2.992v-4.817c0-1.21-.433-2.036-1.516-2.036-.827 0-1.32.557-1.536 1.095-.079.192-.098.46-.098.73v5.028h-2.993s.04-8.159 0-9.004h2.993v1.275c.398-.613 1.11-1.486 2.697-1.486 1.969 0 3.445 1.287 3.445 4.052v5.163z" transform="translate(-856 -173) translate(856 173)"/>
            </g>
        </g>
    </g>
</svg>
