<svg xmlns="http://www.w3.org/2000/svg" width="120" height="120" viewBox="0 0 120 120">
    <g fill="none" fill-rule="evenodd">
        <g fill-rule="nonzero">
            <g transform="translate(-652 -782) translate(652 782)">
                <circle cx="60" cy="60" r="60" fill="#EDEDED"/>
                <path fill="#929292" d="M86.429 34.536c0-.848-.688-1.536-1.536-1.536H35.536c-.848 0-1.536.688-1.536 1.536v49.357c0 .848.688 1.536 1.536 1.536H84.79c.839 0 1.522-.672 1.536-1.51l.103-49.383zm-3.072 41.677H61.75V36.072h21.607v40.14zM37.072 36.072h21.606v40.14H37.072v-40.14zm0 46.285v-3.072h46.259l-.051 3.072H37.072z"/>
                <path fill="#929292" d="M52.483 45.288h-9.216c-.848 0-1.536.688-1.536 1.536 0 .848.688 1.536 1.536 1.536h9.216c.848 0 1.536-.688 1.536-1.536 0-.848-.688-1.536-1.536-1.536zM52.483 51.432h-9.216c-.848 0-1.536.688-1.536 1.536 0 .848.688 1.536 1.536 1.536h9.216c.848 0 1.536-.688 1.536-1.536 0-.848-.688-1.536-1.536-1.536zM52.483 58.6c-.848 0-1.536.688-1.536 1.536v5.12c0 .848.688 1.536 1.536 1.536.848 0 1.536-.688 1.536-1.536v-5.12c0-.848-.688-1.536-1.536-1.536zM67.946 48.36h9.216c.848 0 1.536-.688 1.536-1.536 0-.848-.688-1.536-1.536-1.536h-9.216c-.849 0-1.536.688-1.536 1.536 0 .848.687 1.536 1.536 1.536zM43.267 42.216h9.216c.848 0 1.536-.688 1.536-1.536 0-.848-.688-1.536-1.536-1.536h-9.216c-.848 0-1.536.688-1.536 1.536 0 .848.688 1.536 1.536 1.536zM67.946 42.216h9.216c.848 0 1.536-.688 1.536-1.536 0-.848-.688-1.536-1.536-1.536h-9.216c-.849 0-1.536.688-1.536 1.536 0 .848.687 1.536 1.536 1.536zM77.162 51.432h-9.216c-.849 0-1.536.688-1.536 1.536 0 .848.687 1.536 1.536 1.536h9.216c.848 0 1.536-.688 1.536-1.536 0-.848-.688-1.536-1.536-1.536zM77.162 58.6c-.849 0-1.536.688-1.536 1.536v5.12c0 .848.687 1.536 1.536 1.536.848 0 1.536-.688 1.536-1.536v-5.12c0-.848-.688-1.536-1.536-1.536z"/>
            </g>
        </g>
    </g>
</svg>
