<svg xmlns="http://www.w3.org/2000/svg" width="106" height="106" viewBox="0 0 106 106">
    <g fill="none" fill-rule="evenodd">
        <g>
            <g transform="translate(-134 -105) translate(134 105)">
                <circle cx="53" cy="53" r="53" fill="#E9FBEF"/>
                <g fill="#5F5F5F" fill-rule="nonzero">
                    <path d="M37.446 29.35c-.97-1.01-2.14-1.55-3.38-1.55-1.23 0-2.41.53-3.42 1.54l-3.16 3.15c-.26-.14-.52-.27-.77-.4-.36-.18-.7-.35-.99-.53-2.96-1.88-5.65-4.33-8.23-7.5-1.25-1.58-2.09-2.91-2.7-4.26.82-.75 1.58-1.53 2.32-2.28.28-.28.56-.57.84-.85 2.1-2.1 2.1-4.82 0-6.92l-2.73-2.73c-.31-.31-.63-.63-.93-.95-.6-.62-1.23-1.26-1.88-1.86-.97-.96-2.13-1.47-3.35-1.47-1.22 0-2.4.51-3.4 1.47l-.02.02-3.4 3.43C.966 8.94.236 10.5.076 12.31c-.24 2.92.62 5.64 1.28 7.42 1.62 4.37 4.04 8.42 7.65 12.76 4.38 5.23 9.65 9.36 15.67 12.27 2.3 1.09 5.37 2.38 8.8 2.6.21.01.43.02.63.02 2.31 0 4.25-.83 5.77-2.48.01-.02.03-.03.04-.05.52-.63 1.12-1.2 1.75-1.81.43-.41.87-.84 1.3-1.29.99-1.03 1.51-2.23 1.51-3.46 0-1.24-.53-2.43-1.54-3.43l-5.49-5.51zm3.58 10.53c-.01 0-.01.01 0 0-.39.42-.79.8-1.22 1.22-.65.62-1.31 1.27-1.93 2-1.01 1.08-2.2 1.59-3.76 1.59-.15 0-.31 0-.46-.01-2.97-.19-5.73-1.35-7.8-2.34-5.66-2.74-10.63-6.63-14.76-11.56-3.41-4.11-5.69-7.91-7.2-11.99-.93-2.49-1.27-4.43-1.12-6.26.1-1.17.55-2.14 1.38-2.97l3.41-3.41c.49-.46 1.01-.71 1.52-.71.63 0 1.14.38 1.46.7l.03.03c.61.57 1.19 1.16 1.8 1.79.31.32.63.64.95.97l2.73 2.73c1.06 1.06 1.06 2.04 0 3.1-.29.29-.57.58-.86.86-.84.86-1.64 1.66-2.51 2.44-.02.02-.04.03-.05.05-.86.86-.7 1.7-.52 2.27l.03.09c.71 1.72 1.71 3.34 3.23 5.27l.01.01c2.76 3.4 5.67 6.05 8.88 8.08.41.26.83.47 1.23.67.36.18.7.35.99.53.04.02.08.05.12.07.34.17.66.25.99.25.83 0 1.35-.52 1.52-.69l3.42-3.42c.34-.34.88-.75 1.51-.75.62 0 1.13.39 1.44.73l.02.02 5.51 5.51c1.03 1.02 1.03 2.07.01 3.13zM25.606 11.27c2.62.44 5 1.68 6.9 3.58 1.9 1.9 3.13 4.28 3.58 6.9.11.66.68 1.12 1.33 1.12.08 0 .15-.01.23-.02.74-.12 1.23-.82 1.11-1.56-.54-3.17-2.04-6.06-4.33-8.35s-5.18-3.79-8.35-4.33c-.74-.12-1.43.37-1.56 1.1-.13.73.35 1.44 1.09 1.56zM47.326 20.9c-.89-5.22-3.35-9.97-7.13-13.75-3.78-3.78-8.53-6.24-13.75-7.13-.73-.13-1.42.37-1.55 1.1-.12.74.37 1.43 1.11 1.56 4.66.79 8.91 3 12.29 6.37 3.38 3.38 5.58 7.63 6.37 12.29.11.66.68 1.12 1.33 1.12.08 0 .15-.01.23-.02.73-.11 1.23-.81 1.1-1.54z" transform="translate(29 29)"/>
                </g>
            </g>
        </g>
    </g>
</svg>
