<svg xmlns="http://www.w3.org/2000/svg" width="104" height="104" viewBox="0 0 104 104">
    <g fill="none" fill-rule="evenodd">
        <g fill-rule="nonzero">
            <g transform="translate(-644 -1169) translate(646 1171)">
                <circle cx="50" cy="50" r="50" fill="#B3DCC1" stroke="#FFF" stroke-width="4"/>
                <g fill="#FFF">
                    <path d="M28.26 20.551c-.731-.762-1.614-1.17-2.55-1.17-.928 0-1.819.4-2.581 1.163l-2.385 2.377c-.196-.105-.393-.204-.581-.302-.272-.136-.529-.264-.747-.4-2.234-1.419-4.265-3.268-6.212-5.66-.943-1.193-1.577-2.196-2.038-3.215.62-.566 1.193-1.155 1.751-1.72.212-.212.423-.431.634-.642 1.585-1.585 1.585-3.638 0-5.223l-2.06-2.06c-.234-.234-.475-.476-.702-.717-.453-.468-.928-.951-1.419-1.404C8.638.853 7.763.468 6.842.468c-.92 0-1.811.385-2.566 1.11l-.015.015-2.566 2.589C.729 5.148.178 6.325.057 7.69c-.181 2.204.468 4.257.966 5.6 1.223 3.298 3.05 6.355 5.774 9.63 3.305 3.947 7.283 7.064 11.826 9.26 1.736.823 4.053 1.797 6.642 1.963.158.007.324.015.475.015 1.743 0 3.208-.626 4.355-1.872.007-.015.022-.022.03-.037.392-.476.845-.906 1.32-1.367.325-.309.657-.633.982-.973.747-.777 1.14-1.683 1.14-2.611 0-.936-.4-1.834-1.163-2.59l-4.143-4.158zm2.703 7.948c-.008 0-.008.007 0 0-.295.317-.597.603-.921.92-.49.468-.989.959-1.457 1.51-.762.815-1.66 1.2-2.837 1.2-.114 0-.234 0-.348-.008-2.241-.143-4.324-1.019-5.886-1.766-4.272-2.068-8.023-5.004-11.14-8.724C5.8 18.529 4.08 15.66 2.94 12.58c-.702-1.879-.958-3.343-.845-4.724.075-.883.415-1.615 1.041-2.241L5.71 3.042c.37-.347.762-.536 1.147-.536.476 0 .86.287 1.102.528l.023.023c.46.43.898.876 1.358 1.351.234.242.476.483.717.732l2.06 2.06c.8.8.8 1.54 0 2.34-.218.219-.43.438-.649.65-.634.648-1.237 1.252-1.894 1.84-.015.016-.03.023-.038.038-.649.65-.528 1.283-.392 1.714l.022.068c.536 1.298 1.291 2.52 2.438 3.977l.008.007c2.083 2.566 4.279 4.566 6.702 6.099.31.196.626.354.928.505.272.136.528.264.747.4.03.015.06.038.09.053.257.128.499.189.748.189.626 0 1.019-.393 1.147-.521l2.581-2.581c.257-.257.664-.566 1.14-.566.468 0 .853.294 1.087.55l.015.016 4.158 4.158c.778.77.778 1.563.008 2.363z" transform="translate(34 33)"/>
                </g>
            </g>
        </g>
    </g>
</svg>
