<svg xmlns="http://www.w3.org/2000/svg" width="104" height="104" viewBox="0 0 104 104">
    <g fill="none" fill-rule="evenodd">
        <g fill-rule="nonzero">
            <g>
                <g transform="translate(-775 -1042) translate(777 1044)">
                    <circle cx="50" cy="50" r="50" fill="#F2F2F2" stroke="#FFF" stroke-width="4"/>
                    <path fill="#5F5F5F" d="M59.612 68.346c-.285 0-.577-.037-.865-.116l-26.236-7.217c-1.798-.51-2.87-2.423-2.399-4.27l3.31-12.675c.122-.466.587-.736 1.039-.617.453.123.72.603.6 1.066L31.753 57.19c-.236.924.303 1.886 1.204 2.142l26.226 7.214c.9.244 1.83-.307 2.065-1.227l1.325-5.044c.122-.466.587-.743 1.04-.615.453.125.72.604.599 1.068l-1.323 5.037c-.4 1.551-1.773 2.582-3.277 2.582z"/>
                    <path fill="#5F5F5F" d="M67.327 57.888H40.18c-1.871 0-3.393-1.564-3.393-3.486V33.486c0-1.923 1.522-3.486 3.393-3.486h27.147c1.872 0 3.393 1.563 3.393 3.486v20.916c0 1.922-1.521 3.486-3.393 3.486zM40.18 31.743c-.935 0-1.697.783-1.697 1.743v20.916c0 .96.762 1.743 1.697 1.743h27.147c.935 0 1.697-.783 1.697-1.743V33.486c0-.96-.762-1.743-1.697-1.743H40.18z"/>
                    <path fill="#5F5F5F" d="M37.754 56.023c-.217 0-.434-.086-.6-.255-.332-.34-.332-.892 0-1.232l8.013-8.232c.96-.987 2.638-.987 3.598 0l2.386 2.45 6.603-8.14c.48-.59 1.186-.933 1.938-.94h.019c.743 0 1.447.33 1.932.911l8.874 10.636c.305.364.265.915-.092 1.229-.354.313-.889.273-1.196-.095L60.355 41.72c-.164-.195-.392-.303-.644-.303-.177-.016-.487.11-.652.313l-7.199 8.874c-.153.188-.375.301-.614.312-.241.017-.47-.08-.638-.255l-3.042-3.125c-.32-.328-.88-.328-1.2 0l-8.013 8.232c-.165.17-.382.255-.6.255z"/>
                </g>
                <path fill="#5F5F5F" d="M45.27 42.2c-1.871 0-3.393-1.563-3.393-3.485 0-1.923 1.522-3.486 3.393-3.486 1.872 0 3.394 1.563 3.394 3.486 0 1.922-1.522 3.486-3.394 3.486zm0-5.228c-.935 0-1.697.783-1.697 1.743 0 .96.762 1.743 1.697 1.743s1.697-.783 1.697-1.743c0-.96-.762-1.743-1.697-1.743z" transform="translate(-775 -1042) translate(777 1044)"/>
            </g>
        </g>
    </g>
</svg>
