<?xml version="1.0" encoding="UTF-8"?>
<svg width="80px" height="69px" viewBox="0 0 80 69" version="1.1" xmlns="http://www.w3.org/2000/svg" xmlns:xlink="http://www.w3.org/1999/xlink">
    <title>pilates</title>
    <g id="Desktop" stroke="none" stroke-width="1" fill="none" fill-rule="evenodd">
        <g id="Icon-Library" transform="translate(-316.000000, -426.000000)" fill="#49AB6B" fill-rule="nonzero">
            <g id="pilates" transform="translate(316.000000, 426.000000)">
                <path d="M77.4668312,10.0900404 L58.8843134,10.0900404 C58.1460308,10.0900404 57.5478134,10.688436 57.5478134,11.4265404 C57.5478134,12.1646448 58.1460308,12.7630404 58.8843134,12.7630404 L77.112035,12.7630404 L77.112035,65.3473656 L21.03651,65.3473656 C24.1877988,62.950041 26.2271196,59.1627564 26.2271196,54.9068058 L26.2271196,40.683951 C26.2271196,39.9458466 25.628724,39.347451 24.8906196,39.347451 C24.1525152,39.347451 23.5541196,39.9458466 23.5541196,40.683951 L23.5541196,46.9838556 C21.156795,43.8325668 17.3695104,41.793246 13.1135598,41.793246 C8.8576092,41.793246 5.0703246,43.8325668 2.673,46.9838556 L2.673,13.1522292 C2.673,7.3953 7.3566306,2.7116694 13.1135598,2.7116694 C18.870489,2.7116694 23.5541196,7.3953 23.5541196,13.1522292 L23.5541196,34.5652758 C23.5541196,35.3033802 24.1525152,35.9017758 24.8906196,35.9017758 C25.628724,35.9017758 26.2271196,35.3033802 26.2271196,34.5652758 C26.2271196,34.5652758 26.2210608,12.8925918 26.2173186,12.7628622 L53.5196508,12.7628622 C54.2579334,12.7628622 54.8561508,12.1644666 54.8561508,11.4263622 C54.8561508,10.6882578 54.2579334,10.0898622 53.5196508,10.0898622 L25.8623442,10.0898622 C24.4791558,4.3318638 19.2897936,0.0386694 13.1135598,0.0386694 C5.8827384,0.0386694 0,5.9214078 0,13.1522292 L0,54.9068058 C0,62.1376272 5.8827384,68.0203656 13.1135598,68.0203656 L77.4668312,68.0203656 C78.745238,68.0203656 79.7852132,66.9803904 79.7852132,65.7019836 L79.7852132,12.4084224 C79.7852132,11.1300156 78.7450598,10.0900404 77.4668312,10.0900404 Z M13.1135598,65.3473656 C10.8614682,65.3473656 8.775459,64.6283286 7.0681248,63.4108662 C7.0574328,63.3992832 7.04781,63.3871656 7.0364052,63.375939 C3.6866016,60.0261354 3.6866016,54.575532 7.0364052,51.2257284 C8.2841616,49.9781502 9.9430254,49.291011 11.7073836,49.291011 C13.47192,49.291011 15.1307838,49.9781502 16.378362,51.2257284 C17.3260296,52.173396 17.8479774,53.4334482 17.8479774,54.7735122 C17.8479774,56.1135762 17.3260296,57.3736284 16.378362,58.321296 C15.6707298,59.0289282 14.730012,59.4186516 13.7290626,59.4186516 C12.7282914,59.4186516 11.7873954,59.0289282 11.0797632,58.321296 C10.0153746,57.2569074 10.0153746,55.5249816 11.0797632,54.4604148 C11.4418656,54.0984906 11.9231838,53.8990848 12.4349742,53.8990848 C12.947121,53.8990848 13.428261,54.0984906 13.7903634,54.4604148 C13.9115394,54.5815908 14.0052726,54.7223688 14.0685336,54.878472 C14.345991,55.5625818 15.1254378,55.8920736 15.8093694,55.6149726 C16.4934792,55.3375152 16.8231492,54.5582466 16.54587,53.8741368 C16.3473552,53.3844432 16.0561764,52.945893 15.680709,52.5702474 C13.8912246,50.780763 10.9794366,50.780763 9.1899522,52.5702474 C7.0832718,54.6769278 7.0832718,58.1046048 9.1899522,60.211107 C10.402425,61.4235798 12.0146004,62.0912952 13.7292408,62.0912952 C15.4440594,62.0912952 17.0560566,61.4235798 18.2685294,60.211107 C19.7210376,58.7585988 20.5211556,56.8274454 20.5211556,54.7731558 C20.5211556,52.7188662 19.7212158,50.7877128 18.2685294,49.3352046 C16.5161106,47.5826076 14.1859674,46.6174764 11.7073836,46.6174764 C9.228978,46.6174764 6.8988348,47.5826076 5.1462378,49.3352046 C4.2368832,50.2445592 3.5187372,51.2731296 2.9859192,52.3697724 C4.1223006,47.8347606 8.231058,44.4657114 13.1133816,44.4657114 C18.8703108,44.4657114 23.5539414,49.149342 23.5539414,54.9062712 C23.5539414,60.6632004 18.870489,65.3473656 13.1135598,65.3473656 L13.1135598,65.3473656 Z" id="Shape"></path>
            </g>
        </g>
    </g>
</svg>