<svg xmlns="http://www.w3.org/2000/svg" width="175" height="131" viewBox="0 0 175 131">
    <g fill="none" fill-rule="evenodd">
        <g>
            <g>
                <path fill="#9FEAB8" fill-opacity=".229" d="M16.5 129.933c-7.927-1.277-13.898-8.545-15.719-16.352-1.82-7.806-.205-16.008 2.238-23.643 2.443-7.636 5.719-15.033 7.336-22.884 3.553-17.233-.814-36.552 8.25-51.641C27.702.262 50.221-4.767 64.921 5.067c8.034 5.377 13.644 14.256 22.557 18.005 10.298 4.332 22.093.674 32.409-3.612 10.316-4.284 21.148-9.303 32.18-7.535 9.906 1.586 18.629 9.067 21.692 18.603 3.063 9.535.324 20.685-6.809 27.725-4.362 4.307-10.575 7.828-11.39 13.898-1.005 7.499 6.739 12.804 11.23 18.899 5.04 6.834 6.16 16.354 2.845 24.169-3.315 7.812-10.942 13.635-19.365 14.781" transform="translate(-100 -152) translate(100 152)"/>
                <g fill-rule="nonzero">
                    <path fill="#5F5F5F" d="M96.086 30.625h-8.422V1.915C87.664.856 86.807 0 85.75 0h-73.5c-1.057 0-1.914.857-1.914 1.914v28.711H1.914C.857 30.625 0 31.482 0 32.539v63.547C0 97.143.857 98 1.914 98h94.172C97.143 98 98 97.143 98 96.086V32.539c0-1.057-.857-1.914-1.914-1.914zM65.46 53.594v40.578H50.914V53.594h14.547zm3.828 0h24.883v31.39H69.289v-31.39zm-28.902-19.14c1.057 0 1.914-.858 1.914-1.915s-.857-1.914-1.914-1.914H14.164V3.828h69.672v26.797H57.613c-1.057 0-1.914.857-1.914 1.914s.857 1.914 1.914 1.914h36.559v15.313H3.828V34.453h36.559zM28.71 84.983H3.828v-31.39h24.883v31.39zM3.828 88.813h24.883v5.359H3.828v-5.36zm28.711-35.22h14.547v40.579H32.539V53.594zm61.633 40.579H69.289v-5.36h24.883v5.36z" transform="translate(-100 -152) translate(100 152) translate(38.25 31.91)"/>
                    <path fill="#47AA69" d="M59.577 26.85c1.042.187 2.039-.499 2.227-1.531l1.517-8.335 2.506 8.42.022.067c.31.916 1.171 1.529 2.145 1.529h.011c.979-.005 1.84-.628 2.142-1.55l.02-.067 2.42-8.412 1.613 8.367c.199 1.03 1.203 1.706 2.243 1.51 1.04-.198 1.721-1.193 1.523-2.223L75.11 9.818l-.005-.023c-.205-.997-1.064-1.734-2.09-1.792-1.026-.055-1.963.579-2.28 1.547l-.02.066-2.747 9.552-2.85-9.57-.02-.068c-.328-.966-1.274-1.591-2.298-1.524-1.025.068-1.877.815-2.07 1.815l-.005.021-2.695 14.802c-.188 1.032.504 2.02 1.546 2.207zM35.096 15.6h-4.557c-1.052 0-1.904.85-1.904 1.9 0 1.05.852 1.9 1.904 1.9h2.432c-.486 2.014-1.821 3.8-4.45 3.8-3.15 0-5.713-2.557-5.713-5.7 0-3.143 2.563-5.7 5.713-5.7 1.145 0 2.249.336 3.192.972.872.588 2.055.36 2.644-.51s.36-2.051-.512-2.639C32.27 8.561 30.428 8 28.521 8 23.27 8 19 12.262 19 17.5s4.271 9.5 9.52 9.5c4.993 0 8.48-3.907 8.48-9.5 0-1.05-.852-1.9-1.904-1.9zM45.04 25.1c0 1.05.883 1.9 1.974 1.9 1.09 0 1.975-.85 1.975-1.9v-7.2l4.69-6.924c.596-.879.338-2.056-.576-2.629-.913-.573-2.137-.325-2.732.554l-3.357 4.956-3.385-4.994c-.596-.88-1.82-1.128-2.733-.554-.913.573-1.17 1.75-.575 2.63l4.718 6.961v7.2zM11.576 80.424c.385.384.888.576 1.391.576.504 0 1.007-.192 1.391-.576l8.066-8.066c.768-.768.768-2.014 0-2.782-.768-.768-2.014-.768-2.782 0l-8.066 8.066c-.768.768-.768 2.014 0 2.782zM7.576 70.424c.384.384.888.576 1.391.576.504 0 1.007-.192 1.391-.576l8.066-8.066c.768-.768.768-2.014 0-2.782-.768-.768-2.014-.768-2.782 0l-8.066 8.066c-.768.768-.768 2.014 0 2.782zM88.424 69.576c-.768-.768-2.014-.768-2.782 0l-8.066 8.066c-.768.768-.768 2.013 0 2.782.384.384.888.576 1.391.576.504 0 1.007-.192 1.391-.576l8.066-8.066c.768-.768.768-2.014 0-2.782zM83.424 59.576c-.768-.768-2.014-.768-2.782 0l-8.066 8.066c-.768.768-.768 2.013 0 2.782.384.384.888.576 1.391.576.504 0 1.007-.192 1.391-.576l8.066-8.066c.768-.768.768-2.014 0-2.782zM49 31c-.526 0-1.042.212-1.414.584-.372.374-.586.888-.586 1.416 0 .526.214 1.042.586 1.414.372.372.888.586 1.414.586.526 0 1.042-.214 1.414-.586.372-.372.586-.888.586-1.414 0-.528-.214-1.042-.586-1.416C50.042 31.212 49.526 31 49 31z" transform="translate(-100 -152) translate(100 152) translate(38.25 31.91)"/>
                </g>
                <path stroke="#5F5F5F" stroke-linecap="round" stroke-width="4" d="M148.249 128.91L27.249 128.91" transform="translate(-100 -152) translate(100 152)"/>
            </g>
        </g>
    </g>
</svg>
