<svg xmlns="http://www.w3.org/2000/svg" width="40" height="40" viewBox="0 0 40 40">
    <g fill="none" fill-rule="evenodd">
        <g fill-rule="nonzero">
            <g transform="translate(-850 -251) translate(850 251)">
                <circle cx="20" cy="20" r="20" fill="#8ECEA4"/>
                <g fill="#FFF" stroke="#FFF">
                    <path d="M15.872 15.4l-4.859-4.858c1.009-1.12 1.629-2.597 1.629-4.22C12.642 2.835 9.806 0 6.321 0S0 2.836 0 6.321s2.836 6.321 6.321 6.321c1.623 0 3.1-.62 4.221-1.63l4.859 4.86c.065.064.15.097.235.097.085 0 .17-.033.236-.097.13-.13.13-.34 0-.471zM6.32 11.978C3.202 11.977.665 9.44.665 6.32.665 3.203 3.202.665 6.321.665c3.119 0 5.656 2.537 5.656 5.656 0 3.119-2.537 5.656-5.656 5.656z" transform="translate(12.5 12.5)"/>
                </g>
            </g>
        </g>
    </g>
</svg>
