<?xml version="1.0" encoding="utf-8"?>
<!-- Generator: Adobe Illustrator 25.0.0, SVG Export Plug-In . SVG Version: 6.00 Build 0)  -->
<svg version="1.1" id="Layer_1" xmlns="http://www.w3.org/2000/svg" xmlns:xlink="http://www.w3.org/1999/xlink" x="0px" y="0px"
	 viewBox="0 0 200 62.65" style="enable-background:new 0 0 200 62.65;" xml:space="preserve">
<style type="text/css">
	.st0{fill:none;stroke:#FFFFFF;stroke-miterlimit:10;}
	.st1{fill-rule:evenodd;clip-rule:evenodd;fill:none;stroke:#FFFFFF;stroke-miterlimit:10;}
	.st2{fill:#FFFFFF;}
</style>
<path class="st0" d="M136.22,31.68c0,12.64-10.24,22.88-22.88,22.88c-12.63,0-22.88-10.24-22.88-22.88
	c0-12.63,10.24-22.87,22.88-22.87C125.98,8.81,136.22,19.05,136.22,31.68"/>
<path class="st0" d="M101.26,12.26c2.8,14.44,15.5,25.33,30.76,25.33c1.18,0,2.34-0.07,3.49-0.19c0.47-1.82,0.72-3.74,0.72-5.71
	c0-12.63-10.24-22.87-22.88-22.87C108.91,8.81,104.77,10.07,101.26,12.26"/>
<path class="st1" d="M115.17,28.62c7.88,0,15.08,2.9,20.58,7.71c-2.15,10.41-11.36,18.23-22.41,18.23
	c-10.01,0-18.52-6.43-21.62-15.39C97.46,32.7,105.84,28.62,115.17,28.62"/>
<path class="st2" d="M104.74,24.31c0.49,0.48,0.73,1.08,0.73,1.82c0,0.71-0.24,1.31-0.71,1.78c-0.47,0.48-1.07,0.71-1.78,0.71
	c-0.71,0-1.32-0.24-1.82-0.71c-0.5-0.48-0.75-1.07-0.75-1.78c0-0.71,0.25-1.32,0.75-1.8c0.5-0.49,1.1-0.73,1.82-0.73
	C103.66,23.6,104.25,23.83,104.74,24.31 M104.74,35.79c0.49,0.48,0.73,1.08,0.73,1.82c0,0.71-0.24,1.31-0.71,1.78
	c-0.47,0.48-1.07,0.71-1.78,0.71c-0.71,0-1.32-0.24-1.82-0.71c-0.5-0.48-0.75-1.07-0.75-1.78c0-0.71,0.25-1.31,0.75-1.8
	c0.5-0.49,1.1-0.73,1.82-0.73C103.66,35.08,104.25,35.32,104.74,35.79z"/>
<path class="st2" d="M122.55,24.93c2.12,1.97,3.18,4.54,3.18,7.72c0,3.16-1.06,5.74-3.2,7.74c-2.13,2-4.95,3-8.45,3h-6.71V21.99
	h6.71C117.61,21.99,120.43,22.97,122.55,24.93 M110.81,25.1v15.21h3.24c2.49,0,4.46-0.71,5.94-2.14c1.47-1.43,2.21-3.27,2.21-5.52
	c0-2.29-0.73-4.12-2.19-5.5c-1.46-1.37-3.44-2.06-5.95-2.06H110.81z"/>
<g>
	<g>
		<path class="st2" d="M94.79,39.08h-8.24l-1.72,3.96h-3.85l8.05-21.29h3.32l8.06,21.29h-3.87L94.79,39.08z M87.59,35.1h6.17
			l-3.09-7.83L87.59,35.1z"/>
	</g>
	<g id="zKlKhR.tif">
		<g>
			<path class="st2" d="M76.42,32.59c0,3.29-0.01,6.58,0.01,9.88c0,0.45-0.12,0.58-0.57,0.57c-0.79-0.03-1.58-0.03-2.36,0
				c-0.39,0.01-0.53-0.1-0.52-0.51c0.02-2.84,0-5.68,0.02-8.52c0-0.41-0.13-0.51-0.52-0.51c-3.14,0.01-6.27,0.02-9.41,0
				c-0.43,0-0.54,0.14-0.53,0.55c0.02,2.81,0,5.62,0.02,8.44c0,0.44-0.12,0.58-0.56,0.56c-0.77-0.04-1.55-0.04-2.32,0
				c-0.47,0.02-0.55-0.16-0.55-0.58c0.01-3.66,0.01-7.31,0.01-10.97c0-2.94,0-5.89,0-8.83c0-0.57,0-0.57,0.59-0.57
				c0.77,0,1.55,0.02,2.32-0.01c0.42-0.02,0.51,0.14,0.51,0.53c-0.01,2.43,0,4.87-0.02,7.3c0,0.42,0.13,0.54,0.54,0.54
				c3.14-0.02,6.27-0.02,9.41,0c0.42,0,0.51-0.13,0.51-0.52c-0.02-2.45,0-4.89-0.02-7.34c0-0.38,0.11-0.51,0.5-0.5
				c0.8,0.02,1.6,0.03,2.41,0c0.42-0.01,0.55,0.13,0.55,0.55C76.41,25.95,76.42,29.27,76.42,32.59z"/>
			<path class="st2" d="M42.31,37.03c0.59,0.62,1.11,1.26,1.72,1.79c1.43,1.26,3.09,1.74,4.99,1.36c1.78-0.35,2.84-2.06,2.24-3.66
				c-0.2-0.53-0.57-0.93-1.06-1.18c-1.3-0.68-2.61-1.34-3.94-1.97c-1.2-0.57-2.34-1.23-3.37-2.08c-2.39-1.97-2.32-6.09,0.28-8.07
				c1.67-1.26,3.56-1.64,5.57-1.42c2.36,0.26,4.23,1.38,5.59,3.34c0.2,0.29,0.16,0.45-0.11,0.64c-0.58,0.42-1.15,0.85-1.7,1.31
				c-0.26,0.22-0.41,0.22-0.62-0.07c-0.77-1.08-1.78-1.85-3.11-2.1c-1.05-0.2-2.09-0.16-3.05,0.41c-1.4,0.83-1.56,2.89-0.2,3.76
				c1.12,0.72,2.34,1.29,3.55,1.87c1.26,0.61,2.52,1.2,3.64,2.05c1.61,1.23,2.27,2.85,2.12,4.84c-0.18,2.38-1.71,4.31-4.21,5.09
				c-3.71,1.16-8.07,0.02-10.44-3.65c-0.23-0.35-0.24-0.56,0.12-0.81C41.03,38.02,41.67,37.5,42.31,37.03z"/>
		</g>
	</g>
</g>
<g>
	<path class="st2" d="M133.27,40.09h11.38v2.96h-15.84v-2.4l11-15.91h-10.94v-2.98h15.43v2.34L133.27,40.09z"/>
	<path class="st2" d="M151.74,43.04h-3.68V21.75h3.68V43.04z"/>
</g>
</svg>
