<?xml version="1.0" encoding="UTF-8"?>
<svg width="71px" height="71px" viewBox="0 0 71 71" version="1.1" xmlns="http://www.w3.org/2000/svg" xmlns:xlink="http://www.w3.org/1999/xlink">
    <title>Shape</title>
    <g id="Desktop" stroke="none" stroke-width="1" fill="none" fill-rule="evenodd">
        <g id="Icon-Library" transform="translate(-666.000000, -428.000000)" fill="#49AB6B" fill-rule="nonzero">
            <path d="M735.866515,496.78125 L713.843869,496.78125 C724.448885,492.839918 732.824133,483.946475 735.816195,472.53059 C741.737105,449.983514 724.694665,428 701.487754,428 C681.702361,428 665.602842,444.228631 666.007902,464.232188 C666.296933,478.519828 675.243867,491.623904 689.116806,496.78125 L667.108992,496.78125 C666.496551,496.78125 666,497.277973 666,497.890625 C666,498.503277 666.496551,499 667.108992,499 L735.866515,499 C736.478956,499 736.975508,498.503277 736.975508,497.890625 C736.975508,497.277973 736.478956,496.78125 735.866515,496.78125 Z M678.930573,439.040361 C679.395657,439.807217 679.887495,440.559789 680.405671,441.286014 C680.761381,441.784539 681.454085,441.900191 681.952716,441.544221 C682.451208,441.18825 682.56682,440.495445 682.210972,439.996781 C681.652733,439.214672 681.123883,438.401777 680.632322,437.571133 C683.349076,435.379146 686.403795,433.609277 689.773884,432.341816 C698.254903,443.278867 713.227546,446.638887 725.505339,440.475893 C727.364703,442.415219 728.94266,444.504449 730.305473,446.860623 C717.842756,456.700502 700.307925,456.369631 688.244999,446.452928 C687.771737,446.063814 687.072794,446.13218 686.684093,446.605744 C686.295252,447.079031 686.363594,447.778215 686.836856,448.16719 C699.64045,458.692662 718.137887,459.050297 731.3647,448.846266 C733.033872,452.241369 734.132467,455.926852 734.558182,459.856951 C715.1242,477.24682 684.158917,472.049398 671.764819,448.536057 C673.543504,445.004084 675.916193,441.816988 678.930573,439.040361 Z M723.816205,438.829441 C712.684417,444.011609 699.628805,440.839768 692.012108,431.589938 C702.820208,428.379822 714.935256,430.773992 723.816205,438.829441 Z M670.624082,451.053783 C683.971082,474.094531 714.600479,479.257146 734.744908,462.618324 C734.825726,465.707934 734.483047,468.77383 733.73323,471.722133 C715.524547,492.717055 682.285413,489.428035 668.296723,465.796822 C667.941291,460.524518 668.805751,455.55008 670.624082,451.053783 Z M669.045293,470.889963 C684.371982,491.211355 713.657281,493.597621 732.083049,476.604076 C726.918334,488.69141 714.950504,496.78125 701.487754,496.78125 C685.846942,496.78125 672.43576,485.744078 669.045293,470.889963 Z" id="Shape"></path>
        </g>
    </g>
</svg>