<svg xmlns="http://www.w3.org/2000/svg" width="120" height="120" viewBox="0 0 120 120">
    <g fill="none" fill-rule="evenodd">
        <g fill-rule="nonzero">
            <g transform="translate(-312 -782) translate(312 782)">
                <circle cx="60" cy="60" r="60" fill="#EDEDED"/>
                <path fill="#929292" d="M56.814 42.757c.67-.49.65-.453 5.358-3.116l.03-.016c-2.469-3.474-6.5-5.61-10.869-5.61C43.982 34.015 38 39.997 38 47.348V85.9c0 .284.23.514.514.514h5.137c.283 0 .514-.23.514-.514V47.348c0-3.969 3.242-7.195 7.217-7.168 2.131.014 4.097.994 5.432 2.577z"/>
                <path fill="#929292" d="M57.088 55.69l17.159-9.705-.49-.868c-2-3.538-6.495-4.813-10.067-2.793-4.632 2.62-4.706 2.621-5.35 3.149-2.672 2.183-3.577 6.11-1.744 9.35l.492.868zM80.396 49.418l-.68-1.202c-.421-.748-1.375-1.006-2.115-.588l-20.829 11.78c-.738.417-1.01 1.365-.586 2.115l.68 1.204c.568 1.004 1.841 1.357 2.847.79l19.893-11.252c1.003-.568 1.359-1.84.79-2.847zM66.996 70.14c.84-.14 1.407-.935 1.267-1.775l-.238-1.427c-.14-.84-.934-1.407-1.774-1.267-.84.14-1.406.934-1.266 1.774l.238 1.427c.14.84.934 1.407 1.773 1.267zM74.813 65.857c.742-.416 1.006-1.356.59-2.098l-.667-1.187c-.416-.743-1.356-1.007-2.098-.59-.742.417-1.006 1.356-.59 2.098l.667 1.187c.417.743 1.357 1.006 2.098.59zM82.54 61.416c.557-.644.486-1.617-.158-2.174l-1.094-.947c-.644-.557-1.617-.486-2.174.157-.557.644-.486 1.617.157 2.174l1.095.947c.644.557 1.617.486 2.174-.157zM68.684 76.084c-.123-.842-.905-1.425-1.747-1.303-.843.123-1.426.906-1.303 1.748l.216 1.48c.123.843.906 1.426 1.747 1.303.842-.123 1.426-.905 1.303-1.747l-.216-1.48zM75.447 71.88c-.319-.79-1.217-1.17-2.006-.852-.79.32-1.17 1.217-.852 2.007l.528 1.305c.319.79 1.218 1.17 2.006.851.79-.319 1.17-1.217.852-2.006l-.528-1.306zM82.115 67.689c-.508-.684-1.473-.826-2.156-.319-.684.508-.826 1.473-.319 2.156l.84 1.13c.507.684 1.472.826 2.155.319.684-.508.826-1.473.319-2.156l-.84-1.13zM89.872 64.527l-1.151-.955c-.655-.544-1.627-.453-2.17.202-.544.655-.454 1.626.201 2.17l1.151.955c.655.544 1.627.453 2.17-.202.544-.655.454-1.626-.201-2.17z"/>
            </g>
        </g>
    </g>
</svg>
