<?xml version="1.0" encoding="UTF-8"?>
<svg width="81px" height="55px" viewBox="0 0 81 55" version="1.1" xmlns="http://www.w3.org/2000/svg" xmlns:xlink="http://www.w3.org/1999/xlink">
    <title>Group-6</title>
    <defs>
        <polygon id="path-1" points="0.104803468 0.16168801 80.65512 0.16168801 80.65512 41.9473525 0.104803468 41.9473525"></polygon>
    </defs>
    <g id="Desktop" stroke="none" stroke-width="1" fill="none" fill-rule="evenodd">
        <g id="Icon-Library" transform="translate(-831.000000, -432.000000)">
            <g id="Group-6" transform="translate(831.000000, 432.000000)">
                <g id="Fill-1-Clipped" transform="translate(0.000000, 0.198360)">
                    <mask id="mask-2" fill="white">
                        <use xlink:href="#path-1"></use>
                    </mask>
                    <g id="path-1"></g>
                    <path d="M72.7465171,27.992052 C72.73638,24.426612 69.8067,21.522852 66.25386,21.556332 C62.73666,21.589452 59.8725,24.480612 59.8598132,28.010412 C59.84694,31.587012 62.72874,34.468092 66.31758,34.4662936 C69.91146,34.464852 72.7569,31.599252 72.7465171,27.992052 M59.96502,39.605652 C59.77062,39.026412 59.64966,38.629332 59.50494,38.241252 C57.80646,33.691932 56.09538,29.147292 54.41814,24.590412 C54.25002,24.133572 54.17694,23.588532 54.2403,23.108292 C54.5409,20.819772 54.92358,18.542052 55.23282,16.254252 C55.3257,15.564492 55.63458,15.120972 56.21346,14.751972 C59.3487,12.752532 62.4681,10.729332 65.58606,8.703612 C66.33954,8.214372 67.11714,7.743132 67.79466,7.160652 C68.99922,6.124572 69.25014,4.680972 68.52654,3.531492 C67.82022,2.409012 66.3813,2.061252 64.91754,2.664612 C64.72422,2.744532 64.53414,2.837412 64.35414,2.944332 C59.92398,5.584212 55.48878,8.217252 51.07842,10.889172 C50.75478,11.085372 50.4639,11.543292 50.39694,11.921652 C49.53618,16.792452 48.7035,21.668292 47.90718,26.549892 C47.76822,27.400212 47.37726,27.863532 46.57986,28.153692 C43.31322,29.344572 40.06206,30.577572 36.80658,31.798332 C35.24418,32.384772 33.68466,32.979492 32.12406,33.570252 C41.3379,35.755812 50.32242,38.749932 59.96502,39.605652 M57.62502,26.935452 C59.07402,19.952172 65.7387,18.135252 70.0335,20.214972 C74.5317,22.393692 76.26798,27.854172 73.80882,32.308452 C71.62578,36.263772 65.71134,38.589732 60.42798,34.460172 C61.0821,36.211932 61.65378,37.809252 62.29458,39.377772 C62.37666,39.579732 62.81586,39.739212 63.09234,39.743892 C68.52438,39.830652 73.70766,38.816892 78.51222,36.178092 C78.64326,36.106092 78.77214,36.029412 78.90318,35.956332 C79.57134,35.584812 80.14626,35.706132 80.50482,36.376452 C80.8587,37.038852 80.55486,37.586052 79.93854,37.857492 C77.80374,38.797812 75.7017,39.861252 73.48734,40.560732 C67.81626,42.352812 61.99974,42.158412 56.19402,41.371452 C49.5549,40.471812 43.11234,38.648772 36.61866,37.068372 C29.99754,35.457012 23.35122,33.990732 16.47486,34.104492 C11.39274,34.188372 6.53922,35.220852 2.01186,37.603692 C1.75086,37.741212 1.40598,37.953252 1.18422,37.879092 C0.77526,37.741572 0.18414,37.469052 0.11898,37.158372 C0.03942,36.781092 0.30618,36.103212 0.6327,35.910252 C1.71162,35.273412 2.8593,34.731252 4.02642,34.268652 C9.43362,32.124852 15.07158,31.593852 20.82042,32.036292 C22.88034,32.195052 24.92514,32.544612 26.98074,32.769612 C27.40914,32.816412 27.8901,32.786892 28.2897,32.638932 C33.91254,30.559212 39.5289,28.461132 45.13194,26.329212 C45.44262,26.211132 45.78894,25.790292 45.84654,25.462332 C46.67346,20.767932 47.4813,16.069932 48.22398,11.361852 C48.39318,10.287612 48.83094,9.606852 49.78458,9.052092 C54.11214,6.532812 58.39794,3.941532 62.69598,1.371852 C64.03302,0.572292 65.41542,-0.025668 67.03182,0.215892 C70.30062,0.704412 72.07938,4.189572 70.55586,7.121772 C69.93918,8.307972 68.9679,9.129852 67.86774,9.837612 C64.61442,11.929932 61.3737,14.042772 58.11102,16.120692 C57.61098,16.439292 57.35358,16.798572 57.27762,17.392572 C57.07206,18.997812 56.83374,20.600532 56.5479,22.193172 C56.37834,23.137452 56.4003,24.013332 56.84274,24.891372 C57.14514,25.490772 57.33018,26.149572 57.62502,26.935452" id="Fill-1" fill="#49AB6B" fill-rule="nonzero" mask="url(#mask-2)"></path>
                </g>
                <path d="M17.759988,44.060652 C22.989708,44.206452 28.090188,45.127332 33.154308,46.281132 C40.136508,47.871972 47.087748,49.608612 54.094788,51.079932 C59.467788,52.208532 64.921428,52.466652 70.361748,51.405012 C73.202508,50.850972 75.905388,49.879332 78.445188,48.475692 C78.732108,48.316932 79.057188,48.060972 79.335468,48.093372 C79.732548,48.139812 80.266428,48.316932 80.437428,48.613572 C80.605548,48.905172 80.512308,49.489452 80.313948,49.809492 C80.115228,50.129892 79.659108,50.308452 79.292628,50.505372 C73.883988,53.408412 68.069988,54.392652 61.995708,54.167292 C55.783908,53.937252 49.776228,52.526412 43.758108,51.123852 C37.630908,49.696452 31.511628,48.200292 25.328268,47.060892 C19.692468,46.022652 13.970268,45.911772 8.374788,47.468052 C6.166548,48.082212 4.061268,49.074012 1.923948,49.930812 C1.363068,50.155452 0.855108,50.364612 0.349308,49.882212 C-0.245412,49.315572 -0.065772,48.508092 0.774828,48.055932 C4.108428,46.262052 7.654788,45.082332 11.403108,44.591652 C13.509108,44.315892 15.640308,44.231652 17.759988,44.060652" id="Fill-4" fill="#49AB6B" fill-rule="nonzero"></path>
            </g>
        </g>
    </g>
</svg>