<svg xmlns="http://www.w3.org/2000/svg" width="25" height="25" viewBox="0 0 25 25">
    <g fill="none" fill-rule="evenodd" opacity=".7">
        <g fill="#FFF" fill-rule="nonzero">
            <g>
                <path d="M12.288 0C5.503 0 0 5.503 0 12.288s5.503 12.288 12.288 12.288 12.288-5.503 12.288-12.288S19.073 0 12.288 0zm1.585 19.227c-3.023.052-4.169-2.154-4.169-3.707v-4.535H8.3V9.192c2.106-.759 2.612-2.658 2.731-3.74.009-.075.067-.104.1-.104h2.033v3.536h2.778v2.101h-2.788v4.321c.01.588.225 1.398 1.336 1.368.368-.009.862-.116 1.12-.24l.668 1.98c-.25.369-1.384.796-2.404.813z" transform="translate(-822 -173) translate(822 173)"/>
            </g>
        </g>
    </g>
</svg>
