<svg xmlns="http://www.w3.org/2000/svg" width="106" height="106" viewBox="0 0 106 106">
    <g fill="none" fill-rule="evenodd">
        <g>
            <g transform="translate(-134 -105) translate(134 105)">
                <circle cx="53" cy="53" r="53" fill="#E9FBEF"/>
                <g fill-rule="nonzero">
                    <path fill="#5F5F5F" d="M55.938 9.597C49.75 3.41 41.521 0 32.768 0c-8.753 0-16.982 3.409-23.17 9.597C3.407 15.787 0 24.015 0 32.768s3.408 16.981 9.597 23.17c6.19 6.19 14.418 9.598 23.171 9.598s16.981-3.409 23.17-9.598c6.19-6.189 9.598-14.417 9.598-23.17 0-8.753-3.409-16.981-9.598-23.17zm-23.17 52.099c-15.951 0-28.928-12.977-28.928-28.928S16.817 3.84 32.768 3.84s28.928 12.977 28.928 28.928-12.977 28.928-28.928 28.928z" transform="translate(21 21)"/>
                    <path fill="#47AA69" d="M48.423 22.254c-.75-.75-1.965-.75-2.715 0L28.753 39.21l-8.925-8.925c-.75-.75-1.965-.75-2.715 0-.75.75-.75 1.965 0 2.715l10.282 10.283c.375.375.867.562 1.358.562.491 0 .983-.188 1.358-.562l18.312-18.313c.75-.75.75-1.965 0-2.715z" transform="translate(21 21)"/>
                </g>
            </g>
        </g>
    </g>
</svg>
