<svg xmlns="http://www.w3.org/2000/svg" width="25" height="25" viewBox="0 0 25 25">
    <g fill="none" fill-rule="evenodd" opacity=".7">
        <g fill="#FFF" fill-rule="nonzero">
            <g>
                <path d="M12.288 0C5.503 0 0 5.503 0 12.288s5.503 12.288 12.288 12.288 12.288-5.503 12.288-12.288S19.073 0 12.288 0zm5.61 9.58c.006.122.009.243.009.365 0 3.727-2.837 8.025-8.025 8.025-1.593 0-3.075-.467-4.323-1.267.22.026.445.04.672.04 1.322 0 2.538-.451 3.503-1.208-1.234-.023-2.275-.838-2.635-1.96.172.034.35.052.53.052.258 0 .507-.035.744-.1-1.29-.258-2.262-1.398-2.262-2.764v-.036c.38.211.815.338 1.277.353-.757-.506-1.255-1.37-1.255-2.348 0-.517.14-1.001.382-1.418 1.391 1.707 3.47 2.83 5.814 2.947-.049-.206-.073-.422-.073-.643 0-1.557 1.263-2.82 2.82-2.82.812 0 1.544.343 2.06.891.642-.127 1.245-.362 1.79-.685-.21.659-.658 1.211-1.24 1.56.57-.068 1.114-.22 1.62-.444-.378.566-.857 1.063-1.407 1.46z" transform="translate(-788 -173) translate(788 173)"/>
            </g>
        </g>
    </g>
</svg>
