<?xml version="1.0" encoding="UTF-8"?>
<svg width="242px" height="148px" viewBox="0 0 242 148" version="1.1" xmlns="http://www.w3.org/2000/svg" xmlns:xlink="http://www.w3.org/1999/xlink">
    <title>Group 2</title>
    <defs>
        <rect id="path-1" x="0" y="0" width="242" height="148" rx="8"></rect>
        <mask id="mask-2" maskContentUnits="userSpaceOnUse" maskUnits="objectBoundingBox" x="0" y="0" width="242" height="148" fill="white">
            <use xlink:href="#path-1"></use>
        </mask>
    </defs>
    <g id="Desktop" stroke="none" stroke-width="1" fill="none" fill-rule="evenodd">
        <g id="Artboard" transform="translate(-290.000000, -363.000000)">
            <g id="Group-2" transform="translate(290.000000, 363.000000)">
                <use id="Rectangle" stroke="#979797" mask="url(#mask-2)" stroke-width="2" stroke-dasharray="6" xlink:href="#path-1"></use>
                <g id="Group" transform="translate(96.000000, 33.000000)" fill="#BFBFBF" fill-rule="nonzero">
                    <path d="M46.3613051,16.8597557 C46.5176501,16.0217507 46.5968201,15.1711457 46.5978701,14.3186507 C46.5883151,6.40112567 40.1622101,-0.00954433269 32.2446851,-4.61852778e-13 C26.2174751,0.00725566731 20.8385351,3.78358067 18.7843151,9.44990567 C15.1062701,7.98578567 10.9376651,9.78044567 9.47344011,13.4584907 C9.34670511,13.7768507 9.24296511,14.1038207 9.16306011,14.4369857 C3.29020011,15.3153107 -0.758599891,20.7882257 0.119725109,26.6610857 C0.907435109,31.9282007 5.43230511,35.8249607 10.7579051,35.8227566 L19.7178701,35.8227566 C20.7076001,35.8227566 21.5099051,35.0204507 21.5099051,34.0307207 C21.5099051,33.0409907 20.7076001,32.2386857 19.7178701,32.2386857 L10.7579051,32.2386857 C6.79909011,32.2386857 3.58987011,29.0294657 3.58987011,25.0706507 C3.58987011,21.1118357 6.79909011,17.9026157 10.7579051,17.9026157 C11.7476351,17.9026157 12.5499401,17.1003107 12.5499401,16.1105807 C12.5531951,14.1312257 14.1604301,12.5292407 16.1397851,12.5324957 C17.0758601,12.5340707 17.9742401,12.9017807 18.6426701,13.5569807 C19.3475351,14.2516607 20.4821651,14.2433657 21.1768451,13.5385007 C21.4376651,13.2737957 21.6097601,12.9346457 21.6692951,12.5677757 C22.6420151,6.71581067 28.1744651,2.76046067 34.0264301,3.73318067 C39.8783951,4.70590067 43.8337451,10.2383507 42.8610251,16.0903157 C42.8030651,16.4392307 42.7277801,16.7851007 42.6356951,17.1265607 C42.4296851,17.8745807 42.7284101,18.6701657 43.3758401,19.0977257 C46.6745201,21.2864507 47.5742651,25.7349857 45.3854351,29.0336657 C44.0606501,31.0302407 41.8259351,32.2328057 39.4298351,32.2384757 L34.0538351,32.2384757 C33.0641051,32.2384757 32.2618001,33.0407807 32.2618001,34.0305107 C32.2618001,35.0202407 33.0641051,35.8227566 34.0538351,35.8227566 L39.4298351,35.8227566 C45.3680051,35.8169807 50.1773201,30.9985307 50.1716551,25.0603607 C50.1687101,21.8997557 48.7751501,18.9004307 46.3613051,16.8597557 Z" id="Path"></path>
                    <path d="M37.0722701,36.0397907 C36.3778001,35.3691557 35.2768751,35.3691557 34.5825101,36.0397907 L28.6778351,41.9408957 L28.6778351,15.8027207 C28.6778351,14.8129907 27.8755301,14.0106857 26.8858001,14.0106857 C25.8960701,14.0106857 25.0937651,14.8129907 25.0937651,15.8027207 L25.0937651,41.9407907 L19.1926601,36.0396857 C18.4807601,35.3521457 17.3463401,35.3718857 16.6588001,36.0836807 C15.9880601,36.7781507 15.9880601,37.8790757 16.6588001,38.5735457 L25.6187651,47.5335107 C26.3176451,48.2341757 27.4523801,48.2356457 28.1530451,47.5366607 C28.1540951,47.5356107 28.1551451,47.5345607 28.1563001,47.5335107 L37.1162651,38.5735457 C37.8039101,37.8617507 37.7841701,36.7273307 37.0722701,36.0397907 Z" id="Path" transform="translate(26.887557, 31.035321) scale(1, -1) translate(-26.887557, -31.035321) "></path>
                </g>
                <text id="انتخاب-تصویر" font-family="IRANSansFaNum-Medium, IRANSans(FaNum)" font-size="14" font-weight="400" fill="#BFBFBF">
                    <tspan x="83" y="108">انتخاب تصویر</tspan>
                </text>
            </g>
        </g>
    </g>
</svg>