<svg xmlns="http://www.w3.org/2000/svg" width="40" height="40" viewBox="0 0 40 40">
    <g fill="none" fill-rule="evenodd">
        <g fill="#FFF" fill-rule="nonzero">
            <g>
                <path d="M33.617 5.768C29.897 2.048 24.952 0 19.692 0 14.432 0 9.487 2.048 5.768 5.768 2.048 9.488 0 14.432 0 19.692s2.048 10.206 5.768 13.925c3.72 3.72 8.664 5.768 13.924 5.768s10.206-2.049 13.925-5.768c3.72-3.72 5.768-8.665 5.768-13.925 0-5.26-2.049-10.205-5.768-13.924zM9.872 34.03c.824-4.742 4.933-8.24 9.82-8.24 4.888 0 8.997 3.498 9.82 8.24-2.796 1.92-6.178 3.047-9.82 3.047-3.64 0-7.024-1.126-9.82-3.047zm3.559-16.81c0-3.452 2.809-6.26 6.261-6.26 3.453 0 6.262 2.808 6.262 6.26 0 3.453-2.81 6.262-6.262 6.262-3.452 0-6.261-2.809-6.261-6.261zm18.08 15.21c-.621-2.209-1.854-4.212-3.583-5.776-1.061-.96-2.268-1.718-3.567-2.252 2.347-1.53 3.9-4.178 3.9-7.181 0-4.726-3.844-8.57-8.569-8.57-4.725 0-8.569 3.844-8.569 8.57 0 3.003 1.554 5.651 3.9 7.181-1.298.534-2.505 1.292-3.566 2.252-1.729 1.564-2.962 3.567-3.584 5.775-3.42-3.177-5.565-7.71-5.565-12.737 0-9.586 7.798-17.384 17.384-17.384s17.385 7.798 17.385 17.384c0 5.026-2.145 9.56-5.566 12.737z" transform="translate(-918 -258) translate(918 258)"/>
            </g>
        </g>
    </g>
</svg>
