<?xml version="1.0" encoding="utf-8"?>
<!-- Generator: Adobe Illustrator 25.0.0, SVG Export Plug-In . SVG Version: 6.00 Build 0)  -->
<svg version="1.1" id="Layer_1" xmlns="http://www.w3.org/2000/svg" xmlns:xlink="http://www.w3.org/1999/xlink" x="0px" y="0px"
	 viewBox="0 0 200 200" style="enable-background:new 0 0 200 200;" xml:space="preserve">
<style type="text/css">
	.st0{fill:#A4C439;}
	.st1{fill:#4CB19E;}
	.st2{fill-rule:evenodd;clip-rule:evenodd;fill:#81B841;}
	.st3{fill:#00AA9E;}
	.st4{fill:#010101;}
</style>
<g>
	<path class="st0" d="M123.35,99.65c0,12.64-10.24,22.88-22.88,22.88c-12.63,0-22.88-10.24-22.88-22.88
		c0-12.63,10.24-22.87,22.88-22.87C113.11,76.78,123.35,87.02,123.35,99.65"/>
	<path class="st1" d="M88.39,80.23c2.8,14.44,15.5,25.33,30.76,25.33c1.18,0,2.34-0.07,3.49-0.19c0.47-1.82,0.72-3.74,0.72-5.71
		c0-12.63-10.24-22.87-22.88-22.87C96.04,76.78,91.9,78.04,88.39,80.23"/>
	<path class="st2" d="M102.3,96.59c7.88,0,15.08,2.9,20.58,7.71c-2.15,10.41-11.36,18.23-22.41,18.23
		c-10.01,0-18.52-6.43-21.62-15.39C84.59,100.67,92.97,96.59,102.3,96.59"/>
	<path class="st3" d="M97.57,96.95c5.62,5.34,13.21,8.62,21.58,8.62c1.18,0,2.34-0.07,3.49-0.19c0.09-0.35,0.17-0.71,0.25-1.06
		c-5.5-4.81-12.7-7.71-20.58-7.71C100.69,96.59,99.11,96.71,97.57,96.95"/>
	<path class="st4" d="M91.87,92.28c0.49,0.48,0.73,1.08,0.73,1.82c0,0.71-0.24,1.31-0.71,1.78c-0.47,0.48-1.07,0.71-1.78,0.71
		c-0.71,0-1.32-0.24-1.82-0.71c-0.5-0.48-0.75-1.07-0.75-1.78c0-0.71,0.25-1.32,0.75-1.8c0.5-0.49,1.1-0.73,1.82-0.73
		C90.8,91.57,91.38,91.8,91.87,92.28 M91.87,103.76c0.49,0.48,0.73,1.08,0.73,1.82c0,0.71-0.24,1.31-0.71,1.78
		c-0.47,0.48-1.07,0.71-1.78,0.71c-0.71,0-1.32-0.24-1.82-0.71c-0.5-0.48-0.75-1.07-0.75-1.78c0-0.71,0.25-1.31,0.75-1.8
		c0.5-0.49,1.1-0.73,1.82-0.73C90.8,103.05,91.38,103.28,91.87,103.76z"/>
	<path class="st4" d="M109.68,91.9c2.12,1.97,3.18,4.54,3.18,7.72c0,3.16-1.06,5.74-3.2,7.74c-2.13,2-4.95,3-8.45,3H94.5V88.95h6.71
		C104.74,88.95,107.56,89.94,109.68,91.9 M97.94,92.07v15.21h3.24c2.49,0,4.46-0.71,5.94-2.14c1.47-1.43,2.21-3.27,2.21-5.52
		c0-2.29-0.73-4.12-2.19-5.5c-1.46-1.37-3.44-2.06-5.95-2.06H97.94z"/>
</g>
</svg>
