<svg xmlns="http://www.w3.org/2000/svg" xmlns:xlink="http://www.w3.org/1999/xlink" width="22" height="21" viewBox="0 0 22 21">
    <defs>
        <path id="aqz82sk14a" d="M0 0.055L21.424 0.055 21.424 20.183 0 20.183z"/>
    </defs>
    <g fill="none" fill-rule="evenodd">
        <g>
            <g>
                <g transform="translate(-1168 -380) translate(1168 380) translate(0 .04)">
                    <mask id="hfg44sa4wb" fill="#fff">
                        <use xlink:href="#aqz82sk14a"/>
                    </mask>
                    <path fill="#828282" d="M2.885 8.69c.097-.113.185-.234.29-.338.298-.294.712-.301.981-.026.266.27.262.673-.025.965-.542.55-1.087 1.1-1.64 1.64-.334.325-.789.276-1.05-.108-.438-.646-.872-1.295-1.3-1.949-.236-.361-.168-.757.15-.97.33-.22.72-.125.972.236.058.083.118.164.195.27.105-.4.187-.77.3-1.132.946-3.036 2.875-5.21 5.811-6.421 2.885-1.19 5.77-1.06 8.517.418 3.01 1.62 4.79 4.176 5.242 7.577.401 3.022-.454 5.706-2.475 7.981-1.74 1.96-3.952 3.052-6.566 3.3-2.24.213-4.327-.258-6.232-1.47-.998-.636-1.85-1.435-2.545-2.394-.253-.35-.206-.748.103-.977.315-.232.716-.167.966.172 2.272 3.073 6.128 4.117 9.567 2.902 3.5-1.237 5.509-3.776 5.883-7.472.462-4.562-2.765-8.635-7.295-9.356-4.53-.72-8.868 2.24-9.855 6.729-.027.122-.044.247-.065.37l.071.053z" mask="url(#hfg44sa4wb)"/>
                </g>
                <path fill="#47AA69" d="M10.375 7.499V4.582c.001-.464.267-.767.67-.767.4 0 .67.305.67.766.001 1.777.003 3.554-.004 5.33 0 .197.062.315.22.432 1.161.868 2.316 1.745 3.47 2.622.274.208.363.51.251.803-.106.277-.383.465-.68.417-.149-.024-.304-.098-.427-.19-1.291-.96-2.575-1.93-3.863-2.894-.226-.17-.31-.39-.31-.662.004-.98.002-1.96.002-2.94h.001z" transform="translate(-1168 -380) translate(1168 380)"/>
            </g>
        </g>
    </g>
</svg>
