<svg xmlns="http://www.w3.org/2000/svg" width="25" height="25" viewBox="0 0 25 25">
    <g fill="none" fill-rule="evenodd">
        <g fill="#000" fill-rule="nonzero">
            <g>
                <path d="M23.248 8.92L10.794 21.237c-2.064 2.04-5.41 2.04-7.474 0-2.064-2.041-2.064-5.35 0-7.39L14.53 2.761c1.376-1.36 3.606-1.36 4.982 0 1.376 1.36 1.376 3.566 0 4.927L8.302 18.773c-.688.681-1.803.681-2.491 0-.688-.68-.688-1.782 0-2.463l9.964-9.853-1.246-1.232-9.963 9.854c-1.376 1.36-1.376 3.567 0 4.927 1.376 1.36 3.606 1.36 4.982 0l11.21-11.085c2.063-2.04 2.063-5.35 0-7.39-2.064-2.041-5.41-2.041-7.474 0L1.451 13.23l.043.043c-2.15 2.733-1.96 6.684.58 9.195 2.54 2.512 6.534 2.7 9.299.573l.043.043 13.077-12.932-1.245-1.233z" transform="translate(-1421 -252) translate(1421 252)"/>
            </g>
        </g>
    </g>
</svg>
