<svg xmlns="http://www.w3.org/2000/svg" xmlns:xlink="http://www.w3.org/1999/xlink" width="18" height="18" viewBox="0 0 18 18">
    <defs>
        <path id="aotk0fftza" d="M0 0.04L7.583 0.04 7.583 2.295 0 2.295z"/>
    </defs>
    <g fill="none" fill-rule="evenodd">
        <g>
            <g transform="translate(-980 -295) translate(980 295)">
                <circle cx="8.64" cy="8.64" r="8.64" fill="#828282"/>
                <g>
                    <path fill="#FFF" d="M6.045 1.824c-.034-.02-.046-.03-.06-.035-.708-.295-1.417-.59-2.127-.881C3.813.89 3.748.897 3.7.916c-.68.279-1.357.562-2.034.844-.038.016-.075.036-.121.058.024.016.032.024.042.028.712.297 1.424.594 2.138.887.044.018.11.01.157-.01.454-.184.907-.374 1.36-.563l.802-.336M3.795 3.65c-.073-.02-.14-.032-.201-.057-1.104-.459-2.206-.919-3.309-1.38-.177-.074-.28-.224-.272-.4.009-.192.11-.32.287-.393L3.618.036c.117-.049.234-.047.35 0l3.309 1.38c.18.074.29.203.291.4.001.202-.11.331-.295.408-1.086.451-2.17.906-3.257 1.357-.071.03-.149.046-.221.068" transform="translate(5 4)"/>
                    <g transform="translate(5 4) translate(0 6.957)">
                        <mask id="xc00c4gtvb" fill="#fff">
                            <use xlink:href="#aotk0fftza"/>
                        </mask>
                        <path fill="#FFF" d="M3.808 2.295c-.076-.02-.136-.027-.19-.05-1.11-.461-2.22-.924-3.33-1.387C.048.758-.059.523.033.301.125.08.356-.019.593.077c.455.184.907.375 1.36.563.58.242 1.16.486 1.744.723.057.023.14.022.198-.002C4.924.937 5.95.508 6.977.08c.194-.08.384-.038.503.103.117.14.142.344.035.49-.056.078-.142.148-.23.185-1.056.446-2.115.885-3.174 1.325-.102.043-.208.077-.303.111" mask="url(#xc00c4gtvb)"/>
                    </g>
                    <path fill="#FFF" d="M7.571 5.551c0 .18-.102.325-.288.403l-1.981.827c-.432.18-.865.359-1.296.541-.14.059-.272.065-.413.006-1.099-.46-2.199-.917-3.298-1.376-.212-.088-.324-.293-.272-.495.056-.213.24-.345.453-.318.066.008.13.033.193.058 1.006.418 2.013.836 3.018 1.257.076.032.138.03.213-.001.984-.413 1.97-.823 2.956-1.233.062-.026.124-.053.189-.07.267-.072.525.127.526.401" transform="translate(5 4)"/>
                    <path fill="#FFF" d="M3.789 5.516c-.072-.021-.145-.037-.213-.065-1.093-.454-2.186-.91-3.278-1.366-.241-.1-.346-.33-.254-.556.09-.225.327-.321.57-.22.917.379 1.834.76 2.749 1.144.43.181.428.182.856.002.915-.385 1.831-.766 2.748-1.148.188-.078.372-.039.494.097.118.13.155.32.06.468-.055.086-.144.17-.237.21-.864.368-1.733.727-2.601 1.089-.228.095-.456.192-.685.284-.065.026-.135.04-.21.061" transform="translate(5 4)"/>
                </g>
            </g>
        </g>
    </g>
</svg>
