<svg xmlns="http://www.w3.org/2000/svg" width="20" height="19" viewBox="0 0 20 19">
    <g fill="none" fill-rule="evenodd">
        <g>
            <g transform="translate(-333 -212) translate(333 212)">
                <rect width="4" height="4" x="15.5" y=".5" stroke="#828282" rx="1.5" transform="matrix(-1 0 0 1 35 0)"/>
                <rect width="4" height="4" x="15.5" y="7.5" stroke="#828282" rx="1.5" transform="matrix(-1 0 0 1 35 0)"/>
                <rect width="4" height="4" x="15.5" y="14.5" stroke="#828282" rx="1.5" transform="matrix(-1 0 0 1 35 0)"/>
                <rect width="12" height="4" x=".5" y=".5" stroke="#47AA69" rx="1.5" transform="matrix(-1 0 0 1 13 0)"/>
                <rect width="12" height="4" x=".5" y="7.5" stroke="#47AA69" rx="1.5" transform="matrix(-1 0 0 1 13 0)"/>
                <rect width="12" height="4" x=".5" y="14.5" stroke="#47AA69" rx="1.5" transform="matrix(-1 0 0 1 13 0)"/>
            </g>
        </g>
    </g>
</svg>
