<svg xmlns="http://www.w3.org/2000/svg" width="26" height="21" viewBox="0 0 26 21">
    <g fill="none" fill-rule="evenodd">
        <g fill-rule="nonzero">
            <g>
                <path fill="#828282" d="M18.763.038H1.453C.652.038 0 .69 0 1.491v10.385c0 .802.652 1.454 1.453 1.454h1.123v3.866c0 .246.148.468.375.562.076.031.155.047.233.047.159 0 .314-.062.43-.179l4.297-4.296h.862c.337 0 .61-.273.61-.61 0-.335-.273-.608-.61-.608 0 0-1.143 0-1.155.002-.142.01-.28.068-.39.176l-3.435 3.436s-.001-3.044-.003-3.06c-.027-.31-.288-.554-.606-.554h-1.73c-.13 0-.236-.106-.236-.235V1.49c0-.13.105-.235.235-.235h17.31c.13 0 .236.105.236.235v3.985c0 .336.273.608.609.608.336 0 .608-.272.608-.608V1.49c0-.801-.651-1.453-1.453-1.453z" transform="translate(-330 -443) translate(330 443)"/>
                <path fill="#47AA69" d="M24.352 7.484H12.235c-.801 0-1.453.652-1.453 1.453v7.085c0 .801.652 1.453 1.453 1.453h7.586l3.073 3.073c.117.117.272.179.43.179.08 0 .158-.016.234-.047.227-.094.375-.316.375-.562v-2.643h.419c.8 0 1.453-.652 1.453-1.453V8.937c0-.801-.652-1.453-1.453-1.453zm.235 8.538c0 .13-.105.235-.235.235h-1.027c-.32 0-.583.248-.607.562l-.002 1.83-2.21-2.211-.007-.007-.025-.022c-.107-.094-.247-.152-.4-.152h-7.84c-.13 0-.235-.105-.235-.235V8.937c0-.13.106-.236.236-.236h12.117c.13 0 .235.106.235.236v7.085z" transform="translate(-330 -443) translate(330 443)"/>
                <path fill="#47AA69" d="M18.293 11.87c-.336 0-.608.273-.608.61 0 .335.272.608.608.608.336 0 .61-.273.61-.609 0-.336-.274-.608-.61-.608z" transform="translate(-330 -443) translate(330 443)"/>
                <path fill="#828282" d="M15.648 4.063H4.568c-.335 0-.608.272-.608.609 0 .336.273.608.609.608h11.079c.336 0 .609-.272.609-.608 0-.337-.273-.61-.61-.61zM8.773 8.087H4.57c-.336 0-.609.273-.609.61 0 .335.273.608.609.608h4.204c.337 0 .61-.273.61-.609 0-.336-.273-.609-.61-.609z" transform="translate(-330 -443) translate(330 443)"/>
                <path fill="#47AA69" d="M15.465 11.87c-.336 0-.61.273-.61.61 0 .335.274.608.61.608.336 0 .608-.273.608-.609 0-.336-.272-.608-.608-.608zM21.122 11.87c-.336 0-.61.273-.61.61 0 .335.274.608.61.608.336 0 .608-.273.608-.609 0-.336-.272-.608-.608-.608z" transform="translate(-330 -443) translate(330 443)"/>
            </g>
        </g>
    </g>
</svg>
