<svg xmlns="http://www.w3.org/2000/svg" width="24" height="25" viewBox="0 0 24 25">
    <g fill="none" fill-rule="evenodd">
        <g fill-rule="nonzero">
            <g>
                <path fill="#828282" d="M19.519 5.205c-.257-1.37-1.012-2.62-2.167-3.57C16.07.582 14.401 0 12.664 0c-1.343 0-2.65.346-3.77.998-.933.54-1.708 1.272-2.256 2.132-.237-.04-.484-.062-.73-.062-2.098 0-3.806 1.534-3.806 3.418 0 .244.03.479.08.71C.823 8.081 0 9.51 0 11.03c0 1.228.508 2.42 1.436 3.365.953.967 2.211 1.538 3.554 1.605H9.273c.37 0 .667-.266.667-.599 0-.332-.297-.598-.667-.598H5.05c-2.019-.11-3.716-1.835-3.716-3.777 0-1.255.75-2.425 1.959-3.06.281-.146.4-.451.291-.726-.099-.24-.148-.492-.148-.763 0-1.223 1.11-2.221 2.472-2.221.292 0 .578.044.844.133.326.106.686-.027.834-.306.923-1.76 2.917-2.895 5.084-2.895 2.912 0 5.315 1.96 5.591 4.558.03.27.257.487.553.532 2.196.337 3.854 2.159 3.854 4.238 0 2.203-1.93 4.119-4.308 4.283h-3.637c-.37 0-.666.266-.666.598 0 .333.296.599.666.599H18.434c1.504-.098 2.91-.719 3.957-1.756C23.432 13.211 24 11.89 24 10.516c-.005-2.487-1.895-4.7-4.481-5.311z" transform="translate(-329 -364) translate(329 364.4)"/>
                <path fill="#47AA69" d="M16.594 14.222c.275-.27.275-.703 0-.974l-3.702-3.644c-.13-.128-.31-.204-.492-.204-.181 0-.362.071-.492.204l-3.702 3.644c-.275.27-.275.704 0 .974.134.133.316.204.492.204s.357-.066.492-.204L11.7 11.75v11.362c0 .382.31.688.699.688.388 0 .699-.306.699-.688V11.75l2.511 2.472c.27.27.71.27.984 0z" transform="translate(-329 -364) translate(329 364.4) matrix(1 0 0 -1 0 33.2)"/>
            </g>
        </g>
    </g>
</svg>
