<svg xmlns="http://www.w3.org/2000/svg" xmlns:xlink="http://www.w3.org/1999/xlink" width="22" height="18" viewBox="0 0 22 18">
    <defs>
        <path id="m881kxnnpa" d="M0 0.657L21.727 0.657 21.727 14.396 0 14.396z"/>
        <path id="s02tmtjx8c" d="M0.568 -3L21.133 -3 21.133 4.424 0.568 4.424z"/>
    </defs>
    <g fill="none" fill-rule="evenodd">
        <g>
            <g transform="translate(-257 -283) translate(257 286)">
                <mask id="57kg5ktwbb" fill="#fff">
                    <use xlink:href="#m881kxnnpa"/>
                </mask>
                <path fill="#47AA69" d="M21.705.657c.008.119.02.202.02.286 0 3.375.006 6.75-.003 10.125-.004 1.658-1.084 2.968-2.67 3.27-.208.04-.424.054-.636.054-5.033.003-10.065.006-15.097 0-1.61-.002-2.948-1.076-3.25-2.59-.048-.246-.065-.501-.066-.752C0 7.685 0 4.32.001.954 0 .868.009.784.015.658c.1.048.177.077.247.118C3.356 2.59 6.455 4.394 9.542 6.22c.892.528 1.734.529 2.627.001 3.088-1.823 6.188-3.626 9.284-5.436.072-.042.148-.076.252-.128" mask="url(#57kg5ktwbb)"/>
                <mask id="mn5gkzcj7d" fill="#fff">
                    <use xlink:href="#s02tmtjx8c"/>
                </mask>
                <path fill="#47AA69" d="M.568-1.584c.682-.91 1.558-1.388 2.67-1.408.766-.013 1.532-.006 2.298-.006 4.267 0 8.534.004 12.8.001 1.054 0 1.925.383 2.61 1.185.062.071.113.152.187.254-.448.266-.878.522-1.31.776-2.91 1.707-5.82 3.413-8.729 5.121-.14.083-.25.127-.418.028C7.351 2.409 4.022.459.694-1.493c-.033-.019-.062-.044-.126-.09" mask="url(#mn5gkzcj7d)"/>
            </g>
        </g>
    </g>
</svg>
