<svg xmlns="http://www.w3.org/2000/svg" xmlns:xlink="http://www.w3.org/1999/xlink" width="21" height="18" viewBox="0 0 21 18">
    <defs>
        <path id="vu7nt2jk2a" d="M0 0L20.752 0 20.752 17.987 0 17.987z"/>
    </defs>
    <g fill="none" fill-rule="evenodd">
        <g>
            <g transform="translate(-1167 -456) translate(1167 456)">
                <mask id="fnf2unighb" fill="#fff">
                    <use xlink:href="#vu7nt2jk2a"/>
                </mask>
                <path fill="#47AA69" d="M10.386 16.322c.08-.077.14-.132.198-.19 2.457-2.421 4.911-4.846 7.372-7.263 1.672-1.642 1.894-3.916.546-5.83-.89-1.261-2.732-2.201-4.657-1.26-1.124.549-2.043 1.343-2.855 2.277-.369.425-.83.428-1.2.004-.682-.78-1.44-1.47-2.34-1.994-.797-.464-1.644-.785-2.585-.649-1.357.196-2.286 1.041-2.927 2.174-.983 1.735-.621 3.805.812 5.21 1.822 1.787 3.636 3.583 5.454 5.375.72.71 1.442 1.419 2.182 2.146M10.33 2.649c.53-.446.993-.868 1.49-1.243.843-.635 1.766-1.114 2.817-1.315 1.243-.238 2.398-.012 3.437.703 1.72 1.184 2.689 2.804 2.677 4.925-.009 1.59-.617 2.947-1.75 4.063-2.68 2.642-5.361 5.281-8.042 7.922-.38.375-.762.378-1.142.004L1.757 9.77C-.163 7.88-.573 5.01.842 2.723 1.74 1.273 2.995.233 4.778.03c1.067-.122 2.057.154 2.999.637.901.463 1.692 1.077 2.41 1.789.058.057.099.132.144.193" mask="url(#fnf2unighb)"/>
            </g>
        </g>
    </g>
</svg>
