<svg xmlns="http://www.w3.org/2000/svg" width="22" height="22" viewBox="0 0 22 22">
    <g fill="none" fill-rule="evenodd">
        <g fill="#47AA69" fill-rule="nonzero">
            <path d="M242.715 225h-.005c-5.907 0-10.71 4.805-10.71 10.713 0 2.343.755 4.515 2.04 6.279l-1.336 3.98 4.118-1.317c1.694 1.122 3.715 1.77 5.893 1.77 5.907 0 10.71-4.806 10.71-10.712 0-5.907-4.803-10.713-10.71-10.713zm6.234 15.128c-.259.73-1.284 1.335-2.103 1.511-.56.12-1.29.215-3.752-.806-3.148-1.304-5.175-4.503-5.333-4.71-.152-.208-1.272-1.695-1.272-3.232 0-1.537.78-2.286 1.095-2.607.258-.264.686-.384 1.095-.384.133 0 .252.006.36.012.314.013.472.032.68.529.258.622.887 2.16.962 2.318.077.158.153.372.046.58-.1.214-.189.309-.347.49-.158.183-.308.322-.466.518-.145.17-.308.352-.126.667.182.308.812 1.335 1.738 2.16 1.196 1.064 2.165 1.404 2.512 1.549.259.107.567.082.756-.12.24-.258.535-.686.836-1.108.215-.303.485-.34.77-.233.288.1 1.819.857 2.134 1.014.314.158.522.233.598.365.075.133.075.755-.183 1.487z" transform="translate(-232 -225)"/>
        </g>
    </g>
</svg>
