<svg xmlns="http://www.w3.org/2000/svg" width="21" height="21" viewBox="0 0 21 21">
    <g fill="none" fill-rule="evenodd">
        <g fill="#47AA69" fill-rule="nonzero">
            <path d="M253.547 183.236c-1.235 0-2.447-.193-3.596-.573-.562-.192-1.254-.016-1.598.337l-2.267 1.712c-2.63-1.404-4.25-3.023-5.634-5.633l1.661-2.208c.432-.431.587-1.06.401-1.651-.381-1.155-.575-2.367-.575-3.602 0-.892-.726-1.618-1.618-1.618h-3.703c-.892 0-1.618.726-1.618 1.618 0 10.227 8.32 18.547 18.547 18.547.892 0 1.618-.726 1.618-1.618v-3.693c0-.892-.726-1.618-1.618-1.618z" transform="translate(-235 -170)"/>
        </g>
    </g>
</svg>
