<svg xmlns="http://www.w3.org/2000/svg" width="24" height="22" viewBox="0 0 24 22">
    <g fill="none" fill-rule="evenodd">
        <g fill-rule="nonzero">
            <g>
                <path fill="#828282" d="M23.342 8.343L12.16.155c-.216-.158-.509-.158-.725 0L.251 8.343c-.273.2-.333.584-.133.857s.584.333.857.133l10.821-7.924 10.822 7.924c.109.08.236.118.361.118.19 0 .375-.087.495-.25.2-.274.141-.658-.132-.858z" transform="translate(-329 -132) translate(329 132)"/>
                <path fill="#47AA69" d="M20.379 9.471c-.339 0-.613.275-.613.613v9.758h-4.904v-5.326c0-1.69-1.375-3.066-3.065-3.066S8.73 12.825 8.73 14.516v5.326H3.827v-9.758c0-.338-.274-.613-.613-.613-.338 0-.613.275-.613.613v10.37c0 .34.275.614.613.614h6.13c.323 0 .586-.25.61-.565.002-.015.003-.03.003-.048v-5.94c0-1.014.825-1.839 1.84-1.839 1.014 0 1.839.826 1.839 1.84v5.939c0 .018 0 .033.002.047.024.317.288.566.61.566h6.13c.34 0 .614-.275.614-.613v-10.37c0-.34-.275-.614-.613-.614z" transform="translate(-329 -132) translate(329 132)"/>
            </g>
        </g>
    </g>
</svg>
