<svg xmlns="http://www.w3.org/2000/svg" width="17" height="25" viewBox="0 0 17 25">
    <g fill="none" fill-rule="evenodd">
        <g fill="#47AA69" fill-rule="nonzero">
            <path d="M300.05 393c-4.43 0-8.034 3.604-8.034 8.034 0 1.33.332 2.649.964 3.819l6.63 11.991c.09.16.257.26.44.26s.351-.1.44-.26l6.632-11.995c.63-1.166.963-2.485.963-3.815 0-4.43-3.605-8.034-8.035-8.034zm0 12.052c-2.215 0-4.017-1.802-4.017-4.018 0-2.215 1.802-4.017 4.017-4.017 2.215 0 4.017 1.802 4.017 4.017 0 2.216-1.802 4.018-4.017 4.018z" transform="translate(-292 -393)"/>
        </g>
    </g>
</svg>
