<svg xmlns="http://www.w3.org/2000/svg" width="21" height="21" viewBox="0 0 21 21">
    <g fill="none" fill-rule="evenodd">
        <g fill-rule="nonzero">
            <g>
                <path fill="#828282" d="M10.304 18.925H2.576c-.474 0-.859-.384-.859-.858V2.61c0-.474.385-.858.859-.858h7.728c.475 0 .859-.384.859-.859s-.384-.859-.859-.859H2.576C1.156.034 0 1.19 0 2.61v15.457c0 1.42 1.156 2.576 2.576 2.576h7.728c.475 0 .859-.384.859-.86 0-.474-.384-.858-.859-.858z" transform="translate(-1167 -754) translate(1167 754)"/>
                <path fill="#47AA69" d="M20.421 9.727l-5.22-5.152c-.337-.333-.882-.329-1.215.009-.333.337-.33.88.009 1.214l3.73 3.682H7.729c-.475 0-.859.384-.859.858 0 .475.384.86.86.86h9.997l-3.731 3.681c-.339.333-.341.877-.009 1.214.168.17.39.256.612.256.218 0 .436-.082.602-.247l5.221-5.152c.163-.162.256-.382.256-.612 0-.23-.092-.449-.256-.61z" transform="translate(-1167 -754) translate(1167 754)"/>
            </g>
        </g>
    </g>
</svg>
