<?xml version="1.0" encoding="UTF-8"?>
<svg width="39px" height="39px" viewBox="0 0 39 39" version="1.1" xmlns="http://www.w3.org/2000/svg" xmlns:xlink="http://www.w3.org/1999/xlink">
    <title>Group 11 Copy</title>
    <g id="Desktop" stroke="none" stroke-width="1" fill="none" fill-rule="evenodd" opacity="0.681454613">
        <g id="15" transform="translate(-605.000000, -340.000000)">
            <g id="Group-11-Copy" transform="translate(605.000000, 340.000000)">
                <circle id="Oval-Copy-2" fill="#5F5F5F" cx="19.1063415" cy="19.1063415" r="19.1063415"></circle>
                <g id="messages" transform="translate(10.489756, 12.737561)" fill="#FFFFFF" fill-rule="nonzero" stroke="#FFFFFF" stroke-width="0.96">
                    <path d="M8.89756098,7.488 C8.5884878,7.488 8.28035122,7.41307317 7.99937561,7.26321951 L0.248195122,3.12913171 C0.0196682927,3.00737561 -0.066497561,2.72359024 0.0552585366,2.49506341 C0.177014634,2.26747317 0.4608,2.18130732 0.689326829,2.30212683 L8.44050732,6.43621463 C8.72710244,6.58887805 9.06989268,6.58887805 9.3564878,6.43621463 L17.1076683,2.30212683 C17.3361951,2.1822439 17.6190439,2.26747317 17.7417366,2.49506341 C17.8634927,2.72359024 17.7773268,3.00643902 17.5488,3.12913171 L9.79761951,7.26321951 C9.51477073,7.41307317 9.20663415,7.488 8.89756098,7.488 Z" id="Path"></path>
                    <path d="M15.9959415,12.1756098 L1.79918049,12.1756098 C0.807336585,12.1756098 0,11.3354927 0,10.302439 L0,1.87317073 C0,0.840117073 0.807336585,0 1.79918049,0 L15.9959415,0 C16.9877854,0 17.795122,0.840117073 17.795122,1.87317073 L17.795122,10.302439 C17.795122,11.3354927 16.9877854,12.1756098 15.9959415,12.1756098 Z M1.79918049,0.936585366 C1.32339512,0.936585366 0.936585366,1.3571122 0.936585366,1.87317073 L0.936585366,10.302439 C0.936585366,10.8184976 1.32339512,11.2390244 1.79918049,11.2390244 L15.9959415,11.2390244 C16.4717268,11.2390244 16.8585366,10.8184976 16.8585366,10.302439 L16.8585366,1.87317073 C16.8585366,1.3571122 16.4717268,0.936585366 15.9959415,0.936585366 L1.79918049,0.936585366 Z" id="Shape"></path>
                </g>
            </g>
        </g>
    </g>
</svg>