<?xml version="1.0" encoding="UTF-8"?>
<svg width="39px" height="39px" viewBox="0 0 39 39" version="1.1" xmlns="http://www.w3.org/2000/svg" xmlns:xlink="http://www.w3.org/1999/xlink">
    <title>012-messenger copy</title>
    <g id="Desktop" stroke="none" stroke-width="1" fill="none" fill-rule="evenodd" opacity="0.681454613">
        <g id="15" transform="translate(-543.000000, -340.000000)" fill="#5F5F5F" fill-rule="nonzero">
            <g id="012-messenger-copy" transform="translate(543.000000, 340.000000)">
                <polygon id="Path" points="18.1003903 15.7504391 11.8849756 22.3311219 17.5413658 19.2275122 20.4968781 22.3311219 26.6774634 15.7504391 21.0837073 18.7996098"></polygon>
                <path d="M19.1812683,0 C8.58936587,0 0,8.58936587 0,19.1812683 C0,29.7731707 8.58936587,38.3625366 19.1812683,38.3625366 C29.7731707,38.3625366 38.3625366,29.7731707 38.3625366,19.1812683 C38.3625366,8.58936587 29.7731707,0 19.1812683,0 Z M19.331122,29.448878 C18.1437073,29.448878 16.997561,29.2811707 15.9193171,28.9706342 L12.0512195,31.169561 L12.0512195,27.0327805 C9.46039026,25.0612683 7.8058537,22.0586342 7.8058537,18.6957073 C7.8058537,12.7565853 12.9658537,7.9422439 19.331122,7.9422439 C25.6966829,7.9422439 30.8563902,12.7565853 30.8563902,18.6957073 C30.8563902,24.6342439 25.6966829,29.448878 19.331122,29.448878 L19.331122,29.448878 Z" id="Shape"></path>
            </g>
        </g>
    </g>
</svg>