<svg xmlns="http://www.w3.org/2000/svg" width="24" height="17" viewBox="0 0 24 17">
    <g fill="none" fill-rule="evenodd">
        <g fill-rule="nonzero">
            <g>
                <path fill="#47AA69" d="M11.875 9.994c-.412 0-.824-.1-1.199-.3L.331 4.176c-.305-.162-.42-.541-.257-.846.162-.304.541-.419.846-.258L11.265 8.59c.383.204.84.204 1.223 0l10.345-5.518c.305-.16.682-.046.846.258.162.305.047.683-.258.846L13.076 9.694c-.377.2-.789.3-1.201.3z" transform="translate(-1163 -679) translate(1163 679)"/>
                <path fill="#696969" d="M21.349 16.25H2.4C1.078 16.25 0 15.129 0 13.75V2.5C0 1.121 1.077 0 2.401 0H21.35c1.323 0 2.401 1.121 2.401 2.5v11.25c0 1.379-1.078 2.5-2.401 2.5zM2.4 1.25c-.635 0-1.151.561-1.151 1.25v11.25c0 .689.516 1.25 1.151 1.25H21.35c.635 0 1.151-.561 1.151-1.25V2.5c0-.689-.516-1.25-1.151-1.25H2.4z" transform="translate(-1163 -679) translate(1163 679)"/>
            </g>
        </g>
    </g>
</svg>
