<svg xmlns="http://www.w3.org/2000/svg" width="24" height="25" viewBox="0 0 24 25">
    <g fill="none" fill-rule="evenodd">
        <g fill-rule="nonzero">
            <g>
                <path fill="#828282" d="M18.803 3.762c.328 0 .594-.265.594-.593V1.297C19.397.582 18.815 0 18.1 0H5.55c-.157 0-.307.063-.419.174L.217 5.088c-.11.111-.173.262-.173.42v17.77c0 .716.582 1.298 1.297 1.298H18.1c.715 0 1.297-.582 1.297-1.297v-9.057c0-.328-.266-.593-.594-.593-.327 0-.593.265-.593.593v9.057c0 .06-.05.11-.11.11H1.34c-.06 0-.11-.05-.11-.11V6.1h3.617c.715 0 1.297-.581 1.297-1.296V1.186H18.1c.06 0 .11.05.11.111V3.17c0 .328.266.593.593.593zM4.958 4.804c0 .06-.05.11-.11.11H2.068l2.889-2.889v2.779z" transform="translate(-331 -283) translate(331 283)"/>
                <path fill="#47AA69" d="M23.37 4.819l-.698-.698c-.783-.782-2.056-.782-2.84 0l-5.54 5.54h-9.61c-.327 0-.592.266-.592.594 0 .327.265.593.593.593h8.423l-3.57 3.57H4.683c-.328 0-.593.266-.593.593 0 .328.265.593.593.593H8.35l-.01.01c-.072.072-.125.162-.152.26l-.916 3.3h-2.59c-.327 0-.592.266-.592.594 0 .327.265.593.593.593h3.04s.13-.015.149-.02l3.744-1.039c.098-.027.188-.08.26-.152L23.37 7.657c.782-.782.782-2.055 0-2.838zM8.575 18.916l.484-1.744 1.26 1.26-1.744.484zm2.882-1.024L9.6 16.033l9.487-9.487 1.858 1.859-9.487 9.487zM22.531 6.82l-.748.747-1.858-1.859.747-.747c.32-.32.84-.32 1.16 0l.699.698c.32.32.32.84 0 1.16z" transform="translate(-331 -283) translate(331 283)"/>
            </g>
        </g>
    </g>
</svg>
