<svg xmlns="http://www.w3.org/2000/svg" width="21" height="21" viewBox="0 0 21 21">
    <g fill="none" fill-rule="evenodd">
        <g fill-rule="nonzero">
            <g>
                <path fill="#828282" d="M17.93 0H2.747C1.232 0 0 1.232 0 2.746v11.308c0 .802.652 1.454 1.454 1.454H4.2v3.715c0 .802.652 1.454 1.454 1.454h13.57c.8 0 1.453-.652 1.453-1.454V2.746C20.677 1.232 19.445 0 17.93 0zM1.293 14.054V2.746c0-.802.652-1.454 1.454-1.454.802 0 1.454.652 1.454 1.454v11.47H1.454c-.09 0-.162-.073-.162-.162zm18.093 5.17c0 .088-.073.16-.162.16H5.653c-.088 0-.16-.072-.16-.16V2.745c0-.533-.154-1.032-.419-1.454h12.857c.801 0 1.454.652 1.454 1.454v16.477z" transform="translate(-1164 -529) translate(1164 529)"/>
                <path fill="#47AA69" d="M14.862 12.277c0-1.425-1.16-2.585-2.585-2.585-.713 0-1.292-.58-1.292-1.292 0-.713.58-1.292 1.292-1.292.634 0 1.17.452 1.274 1.076.059.352.392.59.744.53.352-.059.59-.392.53-.744-.172-1.029-.93-1.825-1.902-2.073v-.405c0-.357-.29-.646-.646-.646-.357 0-.646.29-.646.646v.405c-1.114.288-1.939 1.3-1.939 2.503 0 1.425 1.16 2.585 2.585 2.585.713 0 1.292.58 1.292 1.292 0 .713-.58 1.292-1.292 1.292-.634 0-1.17-.452-1.274-1.076-.06-.352-.392-.59-.744-.53-.352.059-.59.392-.53.744.172 1.029.93 1.825 1.902 2.073v.405c0 .356.29.646.646.646.357 0 .646-.29.646-.646v-.405c1.114-.288 1.939-1.3 1.939-2.503z" transform="translate(-1164 -529) translate(1164 529)"/>
            </g>
        </g>
    </g>
</svg>
