<svg xmlns="http://www.w3.org/2000/svg" width="49" height="39" viewBox="0 0 49 39">
    <g fill="none" fill-rule="evenodd" opacity=".317">
        <g fill="#000" fill-rule="nonzero">
            <g>
                <path d="M41.64 6.125h-6.093c-.437 0-.825-.278-.963-.694l-.642-1.926C33.25 1.427 31.314.032 29.124.032h-9.498c-2.19 0-4.126 1.395-4.816 3.471l-.642 1.928c-.14.416-.528.694-.965.694H7.11C3.19 6.125 0 9.315 0 13.235v18.281c0 3.92 3.189 7.11 7.11 7.11h34.53c3.921 0 7.11-3.19 7.11-7.11V13.235c0-3.92-3.189-7.11-7.11-7.11zm5.079 25.391c0 2.8-2.28 5.078-5.078 5.078H7.109c-2.799 0-5.078-2.279-5.078-5.078V13.235c0-2.8 2.28-5.078 5.078-5.078h6.094c1.312 0 2.474-.837 2.89-2.082l.645-1.93c.414-1.245 1.576-2.082 2.888-2.082h9.498c1.312 0 2.474.837 2.89 2.084l.642 1.928c.417 1.245 1.579 2.082 2.89 2.082h6.095c2.799 0 5.078 2.279 5.078 5.078v18.281z" transform="translate(-164 -156) translate(164 156)"/>
                <path d="M24.375 10.188c-6.721 0-12.188 5.466-12.188 12.187 0 6.722 5.467 12.188 12.188 12.188 6.721 0 12.188-5.466 12.188-12.188 0-6.72-5.467-12.187-12.188-12.187zm0 22.344c-5.6 0-10.156-4.556-10.156-10.157 0-5.6 4.556-10.156 10.156-10.156 5.6 0 10.156 4.556 10.156 10.156 0 5.6-4.556 10.157-10.156 10.157z" transform="translate(-164 -156) translate(164 156)"/>
                <path d="M24.375 14.25c-4.48 0-8.125 3.645-8.125 8.125 0 .561.455 1.016 1.016 1.016.56 0 1.015-.455 1.015-1.016 0-3.36 2.734-6.093 6.094-6.093.56 0 1.016-.455 1.016-1.016 0-.56-.455-1.015-1.016-1.015z" transform="translate(-164 -156) translate(164 156)"/>
            </g>
        </g>
    </g>
</svg>
