<?xml version="1.0" encoding="UTF-8"?>
<svg width="39px" height="39px" viewBox="0 0 39 39" version="1.1" xmlns="http://www.w3.org/2000/svg" xmlns:xlink="http://www.w3.org/1999/xlink">
    <title>Group 8 Copy</title>
    <defs>
        <polygon id="path-1" points="3.45847789e-05 0.0788678836 12.7126295 0.0788678836 12.7126295 12.737561 3.45847789e-05 12.737561"></polygon>
        <polygon id="path-3" points="0.00791410939 0.0374484293 13.4099443 0.0374484293 13.4099443 12.7109977 0.00791410939 12.7109977"></polygon>
    </defs>
    <g id="Desktop" stroke="none" stroke-width="1" fill="none" fill-rule="evenodd" opacity="0.681454613">
        <g id="15" transform="translate(-668.000000, -340.000000)">
            <g id="Group-8-Copy" transform="translate(668.000000, 340.000000)">
                <circle id="Oval" fill="#5F5F5F" cx="19.1063415" cy="19.1063415" r="19.1063415"></circle>
                <g id="Group-7" transform="translate(9.740488, 10.489756)">
                    <g id="Group-3" transform="translate(0.000000, 5.994146)">
                        <mask id="mask-2" fill="white">
                            <use xlink:href="#path-1"></use>
                        </mask>
                        <g id="Clip-2"></g>
                        <path d="M4.2797963,0.844755044 C4.25738464,1.31001569 4.22642753,1.73901674 4.21828517,2.1685273 C4.20587008,2.82323793 4.29954758,3.46597526 4.47360071,4.0933426 C4.52922677,4.29391672 4.49689916,4.4345394 4.354045,4.58492753 C3.88896279,5.0751538 3.42662157,5.56937116 2.98370916,6.08159095 C2.34981396,6.81493479 2.23283801,7.9126578 2.66817237,8.81524137 C3.09939524,9.70950306 4.02125606,10.2381968 4.96262631,10.1404572 C5.55709957,10.0788074 6.05096222,9.81395106 6.46541665,9.36567383 C7.43073029,8.32161842 8.40354136,7.28537538 9.36466289,6.23707411 C9.75896296,5.80696913 10.1007811,5.33474529 10.2225134,4.72886197 C10.4131738,3.7799986 10.0383831,2.81236855 9.26219808,2.24690576 C9.21253772,2.21073108 9.16207118,2.17566033 9.1114434,2.14092925 C8.95939885,2.03656617 8.91449491,1.91284199 9.00599575,1.72882669 C9.31685673,1.10383703 9.74953071,0.588645151 10.2673368,0.149454049 C10.384877,0.0497614049 10.5147518,0.0595268683 10.6393058,0.154464156 C11.6724993,0.942154927 12.3539588,1.98179465 12.601132,3.30344398 C12.8545127,4.65897522 12.6917461,5.96075395 11.9507102,7.12522178 C11.6502489,7.59770037 11.2757807,8.02372933 10.9013126,8.43685089 C10.062004,9.36287157 9.20826499,10.2748809 8.34815715,11.1796724 C6.69082311,12.9229349 4.19885636,13.2533473 2.22832343,11.9161581 C0.584774975,10.8009422 -0.126432385,9.14055867 0.018356599,7.09490638 C0.10929311,5.81002615 0.643867584,4.72877705 1.50276616,3.81600343 C2.37746576,2.88650115 3.24249126,1.94689374 4.11211196,1.0121266 C4.16177232,0.958713756 4.21506047,0.909122185 4.2797963,0.844755044" id="Fill-1" fill="#FFFFFF" mask="url(#mask-2)"></path>
                    </g>
                    <g id="Group-6" transform="translate(5.244878, 0.000000)">
                        <mask id="mask-4" fill="white">
                            <use xlink:href="#path-3"></use>
                        </mask>
                        <g id="Clip-5"></g>
                        <path d="M8.85319581,11.9138654 C8.88025429,11.4069104 8.95438944,10.90556 8.92113889,10.4114276 C8.88195075,9.83025514 8.76328362,9.25273413 8.65021479,8.67928913 C8.61026324,8.47633733 8.62315631,8.33274256 8.77269895,8.18396784 C9.21895183,7.7401063 9.6591823,7.29004581 10.0932207,6.83421097 C11.1786984,5.69445401 11.0257628,3.94388855 9.76682246,3.04478658 C8.79882438,2.35339177 7.48670009,2.46293479 6.60920796,3.34726119 C5.48844397,4.47657335 4.38676511,5.62490693 3.287122,6.77493885 C2.58054786,7.51388722 2.36543717,8.38275871 2.70803657,9.3575218 C2.88879401,9.87194942 3.23275056,10.2729278 3.68765538,10.575912 C3.98962464,10.7770805 4.01515631,10.840089 3.79063029,11.1254953 C3.406807,11.6134288 3.00593433,12.0885398 2.60031158,12.5586407 C2.42718819,12.7592148 2.35135658,12.7524215 2.13276816,12.5928623 C0.828532396,11.6412816 0.144266662,10.3421353 0.0243271864,8.74654345 C-0.0925586673,7.19205151 0.416632755,5.8515506 1.49507016,4.73285307 C2.49148389,3.69924246 3.49688884,2.67429339 4.50356614,1.65061807 C5.66326381,0.471374673 7.07785407,-0.103174244 8.71959986,0.0666599024 C10.7942814,0.281245346 12.2953909,1.37727001 13.0349611,3.34072258 C13.8071881,5.39087547 13.3712836,7.25370131 11.8695803,8.84470759 C10.9230424,9.84749331 9.94393252,10.8194541 8.97881842,11.804662 C8.93725523,11.8471205 8.88890622,11.8831254 8.85319581,11.9138654" id="Fill-4" fill="#FFFFFF" mask="url(#mask-4)"></path>
                    </g>
                </g>
            </g>
        </g>
    </g>
</svg>