<?xml version="1.0" encoding="UTF-8"?>
<svg width="39px" height="39px" viewBox="0 0 39 39" version="1.1" xmlns="http://www.w3.org/2000/svg" xmlns:xlink="http://www.w3.org/1999/xlink">
    <title>002-twitter copy</title>
    <g id="Desktop" stroke="none" stroke-width="1" fill="none" fill-rule="evenodd" opacity="0.681454613">
        <g id="15" transform="translate(-356.000000, -340.000000)" fill="#5F5F5F" fill-rule="nonzero">
            <g id="002-twitter-copy" transform="translate(356.000000, 340.000000)">
                <path d="M19.1812683,0 C8.58936587,0 0,8.58936587 0,19.1812683 C0,29.7731707 8.58936587,38.3625366 19.1812683,38.3625366 C29.7731707,38.3625366 38.3625366,29.7731707 38.3625366,19.1812683 C38.3625366,8.58936587 29.7731707,0 19.1812683,0 Z M21.6559025,30.0131707 C16.9358049,30.0945366 15.1478049,26.6508292 15.1478049,24.2268293 L15.1478049,17.1477073 L12.9547317,17.1477073 L12.9547317,14.3490731 C16.2421464,13.1637073 17.0323902,10.1988293 17.2179512,8.50975612 C17.2308293,8.39356101 17.3221463,8.3479024 17.3742439,8.3479024 L20.5472195,8.3479024 L20.5472195,13.8673171 L24.8836098,13.8673171 L24.8836098,17.148 L20.5322927,17.148 L20.5322927,23.892878 C20.5463415,24.8098537 20.8829269,26.0748292 22.6176585,26.0282926 C23.1921951,26.0139512 23.9625366,25.8468293 24.365561,25.6545366 L25.4075122,28.7438049 C25.0170732,29.3195122 23.2483902,29.9859512 21.6559025,30.0131707 L21.6559025,30.0131707 Z" id="Shape"></path>
            </g>
        </g>
    </g>
</svg>