<svg xmlns="http://www.w3.org/2000/svg" width="66" height="66" viewBox="0 0 66 66">
    <g fill="none" fill-rule="evenodd">
        <g fill-rule="nonzero">
            <g transform="translate(-1152 -155) translate(1152 155)">
                <circle cx="33" cy="33" r="33" fill="#F5F5F5"/>
                <g fill="#5F5F5F" opacity=".63">
                    <path d="M28.167 4.833C25.051 1.716 20.907 0 16.5 0S7.95 1.716 4.833 4.833C1.716 7.949 0 12.093 0 16.5s1.716 8.55 4.833 11.667C7.949 31.284 12.093 33 16.5 33s8.55-1.716 11.667-4.833C31.284 25.051 33 20.907 33 16.5s-1.716-8.55-4.833-11.667zM8.272 28.513c.69-3.973 4.133-6.904 8.228-6.904s7.538 2.93 8.228 6.904c-2.343 1.61-5.177 2.553-8.228 2.553-3.05 0-5.885-.943-8.228-2.553zm2.982-14.084c0-2.893 2.353-5.246 5.246-5.246 2.893 0 5.246 2.353 5.246 5.246 0 2.893-2.353 5.246-5.246 5.246-2.893 0-5.246-2.353-5.246-5.246zm15.149 12.743c-.52-1.85-1.554-3.528-3.003-4.839-.888-.804-1.9-1.44-2.988-1.887 1.966-1.282 3.268-3.5 3.268-6.017 0-3.96-3.22-7.18-7.18-7.18-3.96 0-7.18 3.22-7.18 7.18 0 2.517 1.302 4.735 3.268 6.017-1.088.448-2.1 1.082-2.988 1.887-1.449 1.31-2.482 2.989-3.003 4.839-2.866-2.662-4.663-6.46-4.663-10.672 0-8.032 6.534-14.566 14.566-14.566S31.066 8.468 31.066 16.5c0 4.211-1.797 8.01-4.663 10.672z" transform="translate(17 16)"/>
                </g>
            </g>
        </g>
    </g>
</svg>
