<?xml version="1.0" encoding="UTF-8"?>
<svg width="39px" height="39px" viewBox="0 0 39 39" version="1.1" xmlns="http://www.w3.org/2000/svg" xmlns:xlink="http://www.w3.org/1999/xlink">
    <title>003-whatsapp copy</title>
    <g id="Desktop" stroke="none" stroke-width="1" fill="none" fill-rule="evenodd" opacity="0.681454613">
        <g id="15" transform="translate(-445.000000, -340.000000)" fill="#5F5F5F" fill-rule="nonzero">
            <g id="003-whatsapp-copy" transform="translate(445.000000, 340.000000)">
                <path d="M19.1812683,0 C8.58936587,0 0,8.58936587 0,19.1812683 C0,29.7731707 8.58936587,38.3625366 19.1812683,38.3625366 C29.7731707,38.3625366 38.3625366,29.7731707 38.3625366,19.1812683 C38.3625366,8.58936587 29.7731707,0 19.1812683,0 Z M19.5878049,30.3491707 C19.5875122,30.3491707 19.5880976,30.3491707 19.5878049,30.3491707 L19.5831219,30.3491707 C17.6616585,30.3482926 15.773561,29.8665366 14.0967805,28.9521951 L8.01102441,30.5481951 L9.63980488,24.600878 C8.63502441,22.8605854 8.10643901,20.8861463 8.10731707,18.8634146 C8.1099512,12.5356098 13.26,7.38760974 19.5878049,7.38760974 C22.6586341,7.38878047 25.5412683,8.58409754 27.7085854,10.7531707 C29.8761951,12.9225366 31.0691707,15.8060488 31.0680008,18.8724878 C31.0653659,25.2005854 25.9147317,30.3491707 19.5878049,30.3491707 Z" id="Shape"></path>
                <path d="M19.5916097,9.32604878 C14.3282927,9.32604878 10.0478048,13.6047805 10.0454629,18.8642927 C10.044878,20.6666342 10.5494634,22.4218537 11.5044878,23.9405853 L11.731317,24.3014635 L10.7672195,27.821561 L14.3786342,26.874439 L14.7272195,27.0810732 C16.1920976,27.9503414 17.8715122,28.4101463 19.5837073,28.4107317 L19.5875122,28.4107317 C24.8467317,28.4107317 29.1272195,24.1317073 29.1295616,18.8719025 C29.130439,16.3229268 28.1388292,13.9264391 26.3373658,12.1235122 C24.5359025,10.3205854 22.14,9.32692685 19.5916097,9.32604878 L19.5916097,9.32604878 Z M25.2040975,22.9653658 C24.9649756,23.6350244 23.819122,24.246439 23.268,24.3289756 C22.7736585,24.4027317 22.1484878,24.4334634 21.4612683,24.2154146 C21.0444878,24.083122 20.5103414,23.9066341 19.8257561,23.6113171 C16.9483903,22.3691707 15.0690732,19.4727805 14.9256585,19.2813659 C14.7822439,19.0899512 13.7543414,17.7263414 13.7543414,16.3147317 C13.7543414,14.9034146 14.4954147,14.2094634 14.7582439,13.9226341 C15.0213659,13.6355122 15.3321951,13.5638049 15.5233171,13.5638049 C15.714439,13.5638049 15.9058536,13.565561 16.0729756,13.5737561 C16.2491708,13.5825366 16.4856586,13.5067317 16.7183414,14.0660488 C16.9574634,14.6402927 17.5311219,16.0516098 17.6028293,16.1950244 C17.6745366,16.3387317 17.7222439,16.5061463 17.6268292,16.6975609 C17.5311219,16.8889756 17.2132683,17.3019512 16.9097561,17.6783414 C16.782439,17.8360976 16.6164878,17.9765854 16.7839024,18.2637073 C16.9510244,18.5505366 17.5270244,19.4897561 18.3796097,20.2501463 C19.4754146,21.227122 20.3997073,21.5297561 20.6865366,21.6734634 C20.9730731,21.816878 21.1404878,21.7928781 21.3079024,21.6017561 C21.4750244,21.4103415 22.0249756,20.7643902 22.2160975,20.4772683 C22.4072195,20.1901464 22.5986341,20.2381464 22.8614635,20.3338536 C23.1245853,20.4292683 24.5347317,21.1232195 24.821561,21.2666341 C25.1083903,21.4103415 25.2995122,21.4820488 25.3712195,21.6017561 C25.4432195,21.7214634 25.4432195,22.2954146 25.2040975,22.9653658 L25.2040975,22.9653658 Z" id="Shape"></path>
            </g>
        </g>
    </g>
</svg>